G04 PROTEUS GERBER X2 FILE*
%TF.GenerationSoftware,Labcenter,Proteus,8.12-SP0-Build30713*%
%TF.CreationDate,2021-06-08T09:13:02+00:00*%
%TF.FileFunction,Legend,Top*%
%TF.FilePolarity,Positive*%
%TF.Part,Single*%
%TF.SameCoordinates,{86e273a1-3906-477b-930b-e3e2f8447d5b}*%
%FSLAX45Y45*%
%MOMM*%
G01*
%TA.AperFunction,Material*%
%ADD70C,0.508000*%
%ADD71C,0.152400*%
%ADD20C,0.203200*%
%TA.AperFunction,Profile*%
%ADD19C,0.203200*%
%TD.AperFunction*%
D70*
X-13211900Y+10190500D02*
X-13212031Y+10193658D01*
X-13213097Y+10199976D01*
X-13215328Y+10206294D01*
X-13218973Y+10212612D01*
X-13224548Y+10218851D01*
X-13230866Y+10223447D01*
X-13237184Y+10226380D01*
X-13243502Y+10228042D01*
X-13249820Y+10228600D01*
X-13250000Y+10228600D01*
X-13288100Y+10190500D02*
X-13287969Y+10193658D01*
X-13286903Y+10199976D01*
X-13284672Y+10206294D01*
X-13281027Y+10212612D01*
X-13275452Y+10218851D01*
X-13269134Y+10223447D01*
X-13262816Y+10226380D01*
X-13256498Y+10228042D01*
X-13250180Y+10228600D01*
X-13250000Y+10228600D01*
X-13288100Y+10190500D02*
X-13287969Y+10187342D01*
X-13286903Y+10181024D01*
X-13284672Y+10174706D01*
X-13281027Y+10168388D01*
X-13275452Y+10162149D01*
X-13269134Y+10157553D01*
X-13262816Y+10154620D01*
X-13256498Y+10152958D01*
X-13250180Y+10152400D01*
X-13250000Y+10152400D01*
X-13211900Y+10190500D02*
X-13212031Y+10187342D01*
X-13213097Y+10181024D01*
X-13215328Y+10174706D01*
X-13218973Y+10168388D01*
X-13224548Y+10162149D01*
X-13230866Y+10157553D01*
X-13237184Y+10154620D01*
X-13243502Y+10152958D01*
X-13249820Y+10152400D01*
X-13250000Y+10152400D01*
D71*
X-13618300Y+9873000D02*
X-12627700Y+9873000D01*
X-12627700Y+10127000D01*
X-13618300Y+10127000D01*
X-13618300Y+9873000D01*
D20*
X-13821500Y+9625920D02*
X-13726250Y+9625920D01*
X-13773875Y+9625920D02*
X-13773875Y+9534480D01*
X-13694500Y+9534480D02*
X-13694500Y+9625920D01*
X-13615125Y+9625920D01*
X-13599250Y+9610680D01*
X-13599250Y+9595440D01*
X-13615125Y+9580200D01*
X-13694500Y+9580200D01*
X-13615125Y+9580200D02*
X-13599250Y+9564960D01*
X-13599250Y+9534480D01*
X-13567500Y+9534480D02*
X-13567500Y+9595440D01*
X-13535750Y+9625920D01*
X-13504000Y+9625920D01*
X-13472250Y+9595440D01*
X-13472250Y+9534480D01*
X-13567500Y+9564960D02*
X-13472250Y+9564960D01*
X-13440500Y+9534480D02*
X-13440500Y+9625920D01*
X-13345250Y+9534480D01*
X-13345250Y+9625920D01*
X-13313500Y+9549720D02*
X-13297625Y+9534480D01*
X-13234125Y+9534480D01*
X-13218250Y+9549720D01*
X-13218250Y+9564960D01*
X-13234125Y+9580200D01*
X-13297625Y+9580200D01*
X-13313500Y+9595440D01*
X-13313500Y+9610680D01*
X-13297625Y+9625920D01*
X-13234125Y+9625920D01*
X-13218250Y+9610680D01*
X-13186500Y+9534480D02*
X-13186500Y+9625920D01*
X-13091250Y+9625920D01*
X-13186500Y+9580200D02*
X-13123000Y+9580200D01*
X-13059500Y+9595440D02*
X-13027750Y+9625920D01*
X-12996000Y+9625920D01*
X-12964250Y+9595440D01*
X-12964250Y+9564960D01*
X-12996000Y+9534480D01*
X-13027750Y+9534480D01*
X-13059500Y+9564960D01*
X-13059500Y+9595440D01*
X-12932500Y+9534480D02*
X-12932500Y+9625920D01*
X-12853125Y+9625920D01*
X-12837250Y+9610680D01*
X-12837250Y+9595440D01*
X-12853125Y+9580200D01*
X-12932500Y+9580200D01*
X-12853125Y+9580200D02*
X-12837250Y+9564960D01*
X-12837250Y+9534480D01*
X-12805500Y+9534480D02*
X-12805500Y+9625920D01*
X-12757875Y+9580200D01*
X-12710250Y+9625920D01*
X-12710250Y+9534480D01*
X-12583250Y+9534480D02*
X-12678500Y+9534480D01*
X-12678500Y+9625920D01*
X-12583250Y+9625920D01*
X-12678500Y+9580200D02*
X-12615000Y+9580200D01*
X-12551500Y+9534480D02*
X-12551500Y+9625920D01*
X-12472125Y+9625920D01*
X-12456250Y+9610680D01*
X-12456250Y+9595440D01*
X-12472125Y+9580200D01*
X-12551500Y+9580200D01*
X-12472125Y+9580200D02*
X-12456250Y+9564960D01*
X-12456250Y+9534480D01*
D19*
X-14000000Y+3750000D02*
X-4250000Y+3750000D01*
X-4250000Y+10750000D01*
X-14000000Y+10750000D01*
X-14000000Y+3750000D01*
D20*
X-13373000Y+9377000D02*
X-13246000Y+9377000D01*
X-13119000Y+9250000D02*
X-13093124Y+9252436D01*
X-13069152Y+9259485D01*
X-13047562Y+9270762D01*
X-13028830Y+9285878D01*
X-13013431Y+9304446D01*
X-13001842Y+9326081D01*
X-12994540Y+9350394D01*
X-12992000Y+9377000D01*
X-13119000Y+9250000D02*
X-13145606Y+9252436D01*
X-13169919Y+9259485D01*
X-13191554Y+9270762D01*
X-13210122Y+9285878D01*
X-13225238Y+9304446D01*
X-13236515Y+9326081D01*
X-13243564Y+9350394D01*
X-13246000Y+9377000D01*
X-12992000Y+9377000D02*
X-12865000Y+9377000D01*
X-13373000Y+8615000D02*
X-12865000Y+8615000D01*
X-13373000Y+9377000D02*
X-13373000Y+8615000D01*
X-12865000Y+9377000D02*
X-12865000Y+8615000D01*
X-13500000Y+8417640D02*
X-13500000Y+8509080D01*
X-13420625Y+8509080D01*
X-13404750Y+8493840D01*
X-13404750Y+8478600D01*
X-13420625Y+8463360D01*
X-13404750Y+8448120D01*
X-13404750Y+8432880D01*
X-13420625Y+8417640D01*
X-13500000Y+8417640D01*
X-13500000Y+8463360D02*
X-13420625Y+8463360D01*
X-13373000Y+8417640D02*
X-13373000Y+8509080D01*
X-13293625Y+8509080D01*
X-13277750Y+8493840D01*
X-13277750Y+8478600D01*
X-13293625Y+8463360D01*
X-13373000Y+8463360D01*
X-13293625Y+8463360D02*
X-13277750Y+8448120D01*
X-13277750Y+8417640D01*
X-13230125Y+8509080D02*
X-13166625Y+8509080D01*
X-13198375Y+8509080D02*
X-13198375Y+8417640D01*
X-13230125Y+8417640D02*
X-13166625Y+8417640D01*
X-13119000Y+8417640D02*
X-13119000Y+8509080D01*
X-13055500Y+8509080D01*
X-13023750Y+8478600D01*
X-13023750Y+8448120D01*
X-13055500Y+8417640D01*
X-13119000Y+8417640D01*
X-12928500Y+8448120D02*
X-12896750Y+8448120D01*
X-12896750Y+8417640D01*
X-12960250Y+8417640D01*
X-12992000Y+8448120D01*
X-12992000Y+8478600D01*
X-12960250Y+8509080D01*
X-12912625Y+8509080D01*
X-12896750Y+8493840D01*
X-12769750Y+8417640D02*
X-12865000Y+8417640D01*
X-12865000Y+8509080D01*
X-12769750Y+8509080D01*
X-12865000Y+8463360D02*
X-12801500Y+8463360D01*
X-13877000Y+8000000D02*
X-13871920Y+8025876D01*
X-13857315Y+8049848D01*
X-13834138Y+8071438D01*
X-13803340Y+8090170D01*
X-13765875Y+8105569D01*
X-13722695Y+8117158D01*
X-13674752Y+8124460D01*
X-13623000Y+8127000D01*
X-13369000Y+8000000D02*
X-13374080Y+8025876D01*
X-13388685Y+8049848D01*
X-13411862Y+8071438D01*
X-13442660Y+8090170D01*
X-13480125Y+8105569D01*
X-13523305Y+8117158D01*
X-13571248Y+8124460D01*
X-13623000Y+8127000D01*
X-13877000Y+8000000D02*
X-13871920Y+7974124D01*
X-13857315Y+7950152D01*
X-13834138Y+7928562D01*
X-13803340Y+7909830D01*
X-13765875Y+7894431D01*
X-13722695Y+7882842D01*
X-13674752Y+7875540D01*
X-13623000Y+7873000D01*
X-13369000Y+8000000D02*
X-13374080Y+7974124D01*
X-13388685Y+7950152D01*
X-13411862Y+7928562D01*
X-13442660Y+7909830D01*
X-13480125Y+7894431D01*
X-13523305Y+7882842D01*
X-13571248Y+7875540D01*
X-13623000Y+7873000D01*
X-13654750Y+8182880D02*
X-13670625Y+8167640D01*
X-13718250Y+8167640D01*
X-13750000Y+8198120D01*
X-13750000Y+8228600D01*
X-13718250Y+8259080D01*
X-13670625Y+8259080D01*
X-13654750Y+8243840D01*
X-13607125Y+8243840D02*
X-13591250Y+8259080D01*
X-13543625Y+8259080D01*
X-13527750Y+8243840D01*
X-13527750Y+8228600D01*
X-13543625Y+8213360D01*
X-13591250Y+8213360D01*
X-13607125Y+8198120D01*
X-13607125Y+8167640D01*
X-13527750Y+8167640D01*
X-13381000Y+7373000D02*
X-12619000Y+7373000D01*
X-12619000Y+7627000D01*
X-13381000Y+7627000D01*
X-13381000Y+7373000D01*
X-13381000Y+7627000D02*
X-13381000Y+7754000D01*
X-12619000Y+7754000D01*
X-12619000Y+7627000D01*
X-13381000Y+7627000D02*
X-13254000Y+7754000D01*
X-13254000Y+7627000D02*
X-13127000Y+7754000D01*
X-13127000Y+7627000D02*
X-13000000Y+7754000D01*
X-13000000Y+7627000D02*
X-12873000Y+7754000D01*
X-12873000Y+7627000D02*
X-12746000Y+7754000D01*
X-12746000Y+7627000D02*
X-12619000Y+7754000D01*
X-13238125Y+7886080D02*
X-13158750Y+7886080D01*
X-13158750Y+7870840D01*
X-13238125Y+7794640D01*
X-13095250Y+7840360D02*
X-13111125Y+7855600D01*
X-13111125Y+7870840D01*
X-13095250Y+7886080D01*
X-13047625Y+7886080D01*
X-13031750Y+7870840D01*
X-13031750Y+7855600D01*
X-13047625Y+7840360D01*
X-13095250Y+7840360D01*
X-13111125Y+7825120D01*
X-13111125Y+7809880D01*
X-13095250Y+7794640D01*
X-13047625Y+7794640D01*
X-13031750Y+7809880D01*
X-13031750Y+7825120D01*
X-13047625Y+7840360D01*
X-13000000Y+7809880D02*
X-13000000Y+7870840D01*
X-12984125Y+7886080D01*
X-12920625Y+7886080D01*
X-12904750Y+7870840D01*
X-12904750Y+7809880D01*
X-12920625Y+7794640D01*
X-12984125Y+7794640D01*
X-13000000Y+7809880D01*
X-13000000Y+7794640D02*
X-12904750Y+7886080D01*
X-12777750Y+7886080D02*
X-12857125Y+7886080D01*
X-12857125Y+7855600D01*
X-12793625Y+7855600D01*
X-12777750Y+7840360D01*
X-12777750Y+7809880D01*
X-12793625Y+7794640D01*
X-12841250Y+7794640D01*
X-12857125Y+7809880D01*
X-12873000Y+8250000D02*
X-12746000Y+8250000D01*
X-12746000Y+8186500D02*
X-12238000Y+8186500D01*
X-12238000Y+8313500D01*
X-12746000Y+8313500D01*
X-12746000Y+8186500D01*
X-12238000Y+8250000D02*
X-12111000Y+8250000D01*
X-12619000Y+8354140D02*
X-12619000Y+8445580D01*
X-12539625Y+8445580D01*
X-12523750Y+8430340D01*
X-12523750Y+8415100D01*
X-12539625Y+8399860D01*
X-12619000Y+8399860D01*
X-12539625Y+8399860D02*
X-12523750Y+8384620D01*
X-12523750Y+8354140D01*
X-12476125Y+8430340D02*
X-12460250Y+8445580D01*
X-12412625Y+8445580D01*
X-12396750Y+8430340D01*
X-12396750Y+8415100D01*
X-12412625Y+8399860D01*
X-12460250Y+8399860D01*
X-12476125Y+8384620D01*
X-12476125Y+8354140D01*
X-12396750Y+8354140D01*
D70*
X-12021400Y+7500000D02*
X-12021531Y+7503158D01*
X-12022597Y+7509476D01*
X-12024828Y+7515794D01*
X-12028473Y+7522112D01*
X-12034048Y+7528351D01*
X-12040366Y+7532947D01*
X-12046684Y+7535880D01*
X-12053002Y+7537542D01*
X-12059320Y+7538100D01*
X-12059500Y+7538100D01*
X-12097600Y+7500000D02*
X-12097469Y+7503158D01*
X-12096403Y+7509476D01*
X-12094172Y+7515794D01*
X-12090527Y+7522112D01*
X-12084952Y+7528351D01*
X-12078634Y+7532947D01*
X-12072316Y+7535880D01*
X-12065998Y+7537542D01*
X-12059680Y+7538100D01*
X-12059500Y+7538100D01*
X-12097600Y+7500000D02*
X-12097469Y+7496842D01*
X-12096403Y+7490524D01*
X-12094172Y+7484206D01*
X-12090527Y+7477888D01*
X-12084952Y+7471649D01*
X-12078634Y+7467053D01*
X-12072316Y+7464120D01*
X-12065998Y+7462458D01*
X-12059680Y+7461900D01*
X-12059500Y+7461900D01*
X-12021400Y+7500000D02*
X-12021531Y+7496842D01*
X-12022597Y+7490524D01*
X-12024828Y+7484206D01*
X-12028473Y+7477888D01*
X-12034048Y+7471649D01*
X-12040366Y+7467053D01*
X-12046684Y+7464120D01*
X-12053002Y+7462458D01*
X-12059320Y+7461900D01*
X-12059500Y+7461900D01*
D71*
X-12377000Y+7868300D02*
X-12377000Y+6877700D01*
X-12123000Y+6877700D01*
X-12123000Y+7868300D01*
X-12377000Y+7868300D01*
D20*
X-11965520Y+7182500D02*
X-11874080Y+7182500D01*
X-11874080Y+7277750D01*
X-11874080Y+7404750D02*
X-11874080Y+7309500D01*
X-11965520Y+7309500D01*
X-11965520Y+7404750D01*
X-11919800Y+7309500D02*
X-11919800Y+7373000D01*
X-11874080Y+7436500D02*
X-11965520Y+7436500D01*
X-11965520Y+7500000D01*
X-11935040Y+7531750D01*
X-11904560Y+7531750D01*
X-11874080Y+7500000D01*
X-11874080Y+7436500D01*
X-6377000Y+7488000D02*
X-6371920Y+7436248D01*
X-6357315Y+7388305D01*
X-6334138Y+7345125D01*
X-6303340Y+7307660D01*
X-6265875Y+7276862D01*
X-6222695Y+7253685D01*
X-6174752Y+7239080D01*
X-6123000Y+7234000D01*
X-6377000Y+7488000D02*
X-6371920Y+7540482D01*
X-6357315Y+7588767D01*
X-6334138Y+7631991D01*
X-6303340Y+7669292D01*
X-6265875Y+7699807D01*
X-6222695Y+7722672D01*
X-6174752Y+7737024D01*
X-6123000Y+7742000D01*
X-6123000Y+7234000D02*
X-6123000Y+6853000D01*
X-11203000Y+6853000D02*
X-11203000Y+8123000D01*
X-6123000Y+8123000D02*
X-6123000Y+7742000D01*
X-6123000Y+6853000D02*
X-11203000Y+6853000D01*
X-6123000Y+8123000D02*
X-11203000Y+8123000D01*
X-6036640Y+7265750D02*
X-6051880Y+7249875D01*
X-6067120Y+7249875D01*
X-6082360Y+7265750D01*
X-6082360Y+7313375D01*
X-6067120Y+7329250D01*
X-6051880Y+7329250D01*
X-6036640Y+7313375D01*
X-6036640Y+7265750D01*
X-6021400Y+7249875D01*
X-6006160Y+7249875D01*
X-5990920Y+7265750D01*
X-5990920Y+7313375D01*
X-6006160Y+7329250D01*
X-6021400Y+7329250D01*
X-6036640Y+7313375D01*
X-6006160Y+7361000D02*
X-6067120Y+7361000D01*
X-6082360Y+7376875D01*
X-6082360Y+7440375D01*
X-6067120Y+7456250D01*
X-6006160Y+7456250D01*
X-5990920Y+7440375D01*
X-5990920Y+7376875D01*
X-6006160Y+7361000D01*
X-5990920Y+7361000D02*
X-6082360Y+7456250D01*
X-6082360Y+7583250D02*
X-6082360Y+7503875D01*
X-6051880Y+7503875D01*
X-6051880Y+7567375D01*
X-6036640Y+7583250D01*
X-6006160Y+7583250D01*
X-5990920Y+7567375D01*
X-5990920Y+7519750D01*
X-6006160Y+7503875D01*
X-6051880Y+7646750D02*
X-6082360Y+7678500D01*
X-5990920Y+7678500D01*
X-11627000Y+8940500D02*
X-11627000Y+8559500D01*
X-11500000Y+8991300D02*
X-11523688Y+8989117D01*
X-11546633Y+8983362D01*
X-11587312Y+8965900D01*
X-11627000Y+8940500D01*
X-11500000Y+8991300D02*
X-11448065Y+8990438D01*
X-11400037Y+8979046D01*
X-11356846Y+8958204D01*
X-11319422Y+8928991D01*
X-11288695Y+8892484D01*
X-11265596Y+8849764D01*
X-11251054Y+8801910D01*
X-11246000Y+8750000D01*
X-11500000Y+8508700D02*
X-11523688Y+8510883D01*
X-11546633Y+8516638D01*
X-11587312Y+8534100D01*
X-11627000Y+8559500D01*
X-11500000Y+8508700D02*
X-11448065Y+8509562D01*
X-11400037Y+8520954D01*
X-11356846Y+8541796D01*
X-11319422Y+8571009D01*
X-11288695Y+8607516D01*
X-11265596Y+8650236D01*
X-11251054Y+8698090D01*
X-11246000Y+8750000D01*
X-11174880Y+8623000D02*
X-11205360Y+8654750D01*
X-11205360Y+8686500D01*
X-11174880Y+8718250D01*
X-11144400Y+8718250D01*
X-11113920Y+8686500D01*
X-11113920Y+8654750D01*
X-11144400Y+8623000D01*
X-11174880Y+8623000D01*
X-11144400Y+8686500D02*
X-11113920Y+8718250D01*
X-11174880Y+8781750D02*
X-11205360Y+8813500D01*
X-11113920Y+8813500D01*
D70*
X-10771400Y+10000000D02*
X-10771531Y+10003158D01*
X-10772597Y+10009476D01*
X-10774828Y+10015794D01*
X-10778473Y+10022112D01*
X-10784048Y+10028351D01*
X-10790366Y+10032947D01*
X-10796684Y+10035880D01*
X-10803002Y+10037542D01*
X-10809320Y+10038100D01*
X-10809500Y+10038100D01*
X-10847600Y+10000000D02*
X-10847469Y+10003158D01*
X-10846403Y+10009476D01*
X-10844172Y+10015794D01*
X-10840527Y+10022112D01*
X-10834952Y+10028351D01*
X-10828634Y+10032947D01*
X-10822316Y+10035880D01*
X-10815998Y+10037542D01*
X-10809680Y+10038100D01*
X-10809500Y+10038100D01*
X-10847600Y+10000000D02*
X-10847469Y+9996842D01*
X-10846403Y+9990524D01*
X-10844172Y+9984206D01*
X-10840527Y+9977888D01*
X-10834952Y+9971649D01*
X-10828634Y+9967053D01*
X-10822316Y+9964120D01*
X-10815998Y+9962458D01*
X-10809680Y+9961900D01*
X-10809500Y+9961900D01*
X-10771400Y+10000000D02*
X-10771531Y+9996842D01*
X-10772597Y+9990524D01*
X-10774828Y+9984206D01*
X-10778473Y+9977888D01*
X-10784048Y+9971649D01*
X-10790366Y+9967053D01*
X-10796684Y+9964120D01*
X-10803002Y+9962458D01*
X-10809320Y+9961900D01*
X-10809500Y+9961900D01*
D71*
X-11127000Y+10368300D02*
X-11127000Y+9377700D01*
X-10873000Y+9377700D01*
X-10873000Y+10368300D01*
X-11127000Y+10368300D01*
D20*
X-10624080Y+9492000D02*
X-10715520Y+9492000D01*
X-10715520Y+9571375D01*
X-10700280Y+9587250D01*
X-10685040Y+9587250D01*
X-10669800Y+9571375D01*
X-10654560Y+9587250D01*
X-10639320Y+9587250D01*
X-10624080Y+9571375D01*
X-10624080Y+9492000D01*
X-10669800Y+9492000D02*
X-10669800Y+9571375D01*
X-10715520Y+9619000D02*
X-10639320Y+9619000D01*
X-10624080Y+9634875D01*
X-10624080Y+9698375D01*
X-10639320Y+9714250D01*
X-10715520Y+9714250D01*
X-10715520Y+9746000D02*
X-10715520Y+9841250D01*
X-10624080Y+9746000D01*
X-10624080Y+9841250D01*
X-10715520Y+9873000D02*
X-10715520Y+9968250D01*
X-10624080Y+9873000D01*
X-10624080Y+9968250D01*
X-10624080Y+10095250D02*
X-10624080Y+10000000D01*
X-10715520Y+10000000D01*
X-10715520Y+10095250D01*
X-10669800Y+10000000D02*
X-10669800Y+10063500D01*
X-10624080Y+10127000D02*
X-10715520Y+10127000D01*
X-10715520Y+10206375D01*
X-10700280Y+10222250D01*
X-10685040Y+10222250D01*
X-10669800Y+10206375D01*
X-10669800Y+10127000D01*
X-10669800Y+10206375D02*
X-10654560Y+10222250D01*
X-10624080Y+10222250D01*
X-11623000Y+9500000D02*
X-11623427Y+9510409D01*
X-11626899Y+9531228D01*
X-11634155Y+9552047D01*
X-11645983Y+9572866D01*
X-11664080Y+9593524D01*
X-11684899Y+9609045D01*
X-11705718Y+9619030D01*
X-11726537Y+9624814D01*
X-11747356Y+9626972D01*
X-11750000Y+9627000D01*
X-11877000Y+9500000D02*
X-11876573Y+9510409D01*
X-11873101Y+9531228D01*
X-11865845Y+9552047D01*
X-11854017Y+9572866D01*
X-11835920Y+9593524D01*
X-11815101Y+9609045D01*
X-11794282Y+9619030D01*
X-11773463Y+9624814D01*
X-11752644Y+9626972D01*
X-11750000Y+9627000D01*
X-11877000Y+9500000D02*
X-11876573Y+9489591D01*
X-11873101Y+9468772D01*
X-11865845Y+9447953D01*
X-11854017Y+9427134D01*
X-11835920Y+9406476D01*
X-11815101Y+9390955D01*
X-11794282Y+9380970D01*
X-11773463Y+9375186D01*
X-11752644Y+9373028D01*
X-11750000Y+9373000D01*
X-11623000Y+9500000D02*
X-11623427Y+9489591D01*
X-11626899Y+9468772D01*
X-11634155Y+9447953D01*
X-11645983Y+9427134D01*
X-11664080Y+9406476D01*
X-11684899Y+9390955D01*
X-11705718Y+9380970D01*
X-11726537Y+9375186D01*
X-11747356Y+9373028D01*
X-11750000Y+9373000D01*
X-11686500Y+9500000D02*
X-11686717Y+9505247D01*
X-11688482Y+9515742D01*
X-11692174Y+9526237D01*
X-11698202Y+9536732D01*
X-11707424Y+9547112D01*
X-11717919Y+9554800D01*
X-11728414Y+9559718D01*
X-11738909Y+9562524D01*
X-11749404Y+9563497D01*
X-11750000Y+9563500D01*
X-11813500Y+9500000D02*
X-11813283Y+9505247D01*
X-11811518Y+9515742D01*
X-11807826Y+9526237D01*
X-11801798Y+9536732D01*
X-11792576Y+9547112D01*
X-11782081Y+9554800D01*
X-11771586Y+9559718D01*
X-11761091Y+9562524D01*
X-11750596Y+9563497D01*
X-11750000Y+9563500D01*
X-11813500Y+9500000D02*
X-11813283Y+9494753D01*
X-11811518Y+9484258D01*
X-11807826Y+9473763D01*
X-11801798Y+9463268D01*
X-11792576Y+9452888D01*
X-11782081Y+9445200D01*
X-11771586Y+9440282D01*
X-11761091Y+9437476D01*
X-11750596Y+9436503D01*
X-11750000Y+9436500D01*
X-11686500Y+9500000D02*
X-11686717Y+9494753D01*
X-11688482Y+9484258D01*
X-11692174Y+9473763D01*
X-11698202Y+9463268D01*
X-11707424Y+9452888D01*
X-11717919Y+9445200D01*
X-11728414Y+9440282D01*
X-11738909Y+9437476D01*
X-11749404Y+9436503D01*
X-11750000Y+9436500D01*
X-11917640Y+8738000D02*
X-12009080Y+8738000D01*
X-12009080Y+8817375D01*
X-11993840Y+8833250D01*
X-11978600Y+8833250D01*
X-11963360Y+8817375D01*
X-11948120Y+8833250D01*
X-11932880Y+8833250D01*
X-11917640Y+8817375D01*
X-11917640Y+8738000D01*
X-11963360Y+8738000D02*
X-11963360Y+8817375D01*
X-12009080Y+8865000D02*
X-11932880Y+8865000D01*
X-11917640Y+8880875D01*
X-11917640Y+8944375D01*
X-11932880Y+8960250D01*
X-12009080Y+8960250D01*
X-12009080Y+8992000D02*
X-12009080Y+9087250D01*
X-11917640Y+8992000D01*
X-11917640Y+9087250D01*
X-12009080Y+9119000D02*
X-12009080Y+9214250D01*
X-11917640Y+9119000D01*
X-11917640Y+9214250D01*
X-11917640Y+9341250D02*
X-11917640Y+9246000D01*
X-12009080Y+9246000D01*
X-12009080Y+9341250D01*
X-11963360Y+9246000D02*
X-11963360Y+9309500D01*
X-11917640Y+9373000D02*
X-12009080Y+9373000D01*
X-12009080Y+9452375D01*
X-11993840Y+9468250D01*
X-11978600Y+9468250D01*
X-11963360Y+9452375D01*
X-11963360Y+9373000D01*
X-11963360Y+9452375D02*
X-11948120Y+9468250D01*
X-11917640Y+9468250D01*
X-12009080Y+9642875D02*
X-12009080Y+9706375D01*
X-12009080Y+9674625D02*
X-11917640Y+9674625D01*
X-11917640Y+9642875D02*
X-11917640Y+9706375D01*
X-11917640Y+9754000D02*
X-12009080Y+9754000D01*
X-11917640Y+9849250D01*
X-12009080Y+9849250D01*
X-11917640Y+9881000D02*
X-12009080Y+9881000D01*
X-12009080Y+9960375D01*
X-11993840Y+9976250D01*
X-11978600Y+9976250D01*
X-11963360Y+9960375D01*
X-11963360Y+9881000D01*
X-12009080Y+10008000D02*
X-11932880Y+10008000D01*
X-11917640Y+10023875D01*
X-11917640Y+10087375D01*
X-11932880Y+10103250D01*
X-12009080Y+10103250D01*
X-12009080Y+10135000D02*
X-12009080Y+10230250D01*
X-12009080Y+10182625D02*
X-11917640Y+10182625D01*
X-5873000Y+5623000D02*
X-5873000Y+5496000D01*
X-6000000Y+5369000D02*
X-5997564Y+5343124D01*
X-5990515Y+5319152D01*
X-5979238Y+5297562D01*
X-5964122Y+5278830D01*
X-5945554Y+5263431D01*
X-5923919Y+5251842D01*
X-5899606Y+5244540D01*
X-5873000Y+5242000D01*
X-6000000Y+5369000D02*
X-5997564Y+5395606D01*
X-5990515Y+5419919D01*
X-5979238Y+5441554D01*
X-5964122Y+5460122D01*
X-5945554Y+5475238D01*
X-5923919Y+5486515D01*
X-5899606Y+5493564D01*
X-5873000Y+5496000D01*
X-5873000Y+5242000D02*
X-5873000Y+5115000D01*
X-8413000Y+5623000D02*
X-8413000Y+5115000D01*
X-5873000Y+5623000D02*
X-8413000Y+5623000D01*
X-5873000Y+5115000D02*
X-8413000Y+5115000D01*
X-8490920Y+4924500D02*
X-8551880Y+4924500D01*
X-8582360Y+4956250D01*
X-8582360Y+4988000D01*
X-8551880Y+5019750D01*
X-8490920Y+5019750D01*
X-8521400Y+4924500D02*
X-8521400Y+5019750D01*
X-8490920Y+5051500D02*
X-8582360Y+5051500D01*
X-8582360Y+5115000D01*
X-8551880Y+5146750D01*
X-8521400Y+5146750D01*
X-8490920Y+5115000D01*
X-8490920Y+5051500D01*
X-8506160Y+5273750D02*
X-8490920Y+5257875D01*
X-8490920Y+5210250D01*
X-8521400Y+5178500D01*
X-8551880Y+5178500D01*
X-8582360Y+5210250D01*
X-8582360Y+5257875D01*
X-8567120Y+5273750D01*
X-8506160Y+5305500D02*
X-8567120Y+5305500D01*
X-8582360Y+5321375D01*
X-8582360Y+5384875D01*
X-8567120Y+5400750D01*
X-8506160Y+5400750D01*
X-8490920Y+5384875D01*
X-8490920Y+5321375D01*
X-8506160Y+5305500D01*
X-8490920Y+5305500D02*
X-8582360Y+5400750D01*
X-8536640Y+5464250D02*
X-8551880Y+5448375D01*
X-8567120Y+5448375D01*
X-8582360Y+5464250D01*
X-8582360Y+5511875D01*
X-8567120Y+5527750D01*
X-8551880Y+5527750D01*
X-8536640Y+5511875D01*
X-8536640Y+5464250D01*
X-8521400Y+5448375D01*
X-8506160Y+5448375D01*
X-8490920Y+5464250D01*
X-8490920Y+5511875D01*
X-8506160Y+5527750D01*
X-8521400Y+5527750D01*
X-8536640Y+5511875D01*
X-8506160Y+5559500D02*
X-8567120Y+5559500D01*
X-8582360Y+5575375D01*
X-8582360Y+5638875D01*
X-8567120Y+5654750D01*
X-8506160Y+5654750D01*
X-8490920Y+5638875D01*
X-8490920Y+5575375D01*
X-8506160Y+5559500D01*
X-8490920Y+5559500D02*
X-8582360Y+5654750D01*
X-8521400Y+5781750D02*
X-8521400Y+5686500D01*
X-8582360Y+5750000D01*
X-8490920Y+5750000D01*
X-4877000Y+5873000D02*
X-5004000Y+5873000D01*
X-5131000Y+6000000D02*
X-5156876Y+5997564D01*
X-5180848Y+5990515D01*
X-5202438Y+5979238D01*
X-5221170Y+5964122D01*
X-5236569Y+5945554D01*
X-5248158Y+5923919D01*
X-5255460Y+5899606D01*
X-5258000Y+5873000D01*
X-5131000Y+6000000D02*
X-5104394Y+5997564D01*
X-5080081Y+5990515D01*
X-5058446Y+5979238D01*
X-5039878Y+5964122D01*
X-5024762Y+5945554D01*
X-5013485Y+5923919D01*
X-5006436Y+5899606D01*
X-5004000Y+5873000D01*
X-5258000Y+5873000D02*
X-5385000Y+5873000D01*
X-4877000Y+7905000D02*
X-5385000Y+7905000D01*
X-4877000Y+5873000D02*
X-4877000Y+7905000D01*
X-5385000Y+7905000D02*
X-5385000Y+5873000D01*
X-5575500Y+7990920D02*
X-5575500Y+8082360D01*
X-5496125Y+8082360D01*
X-5480250Y+8067120D01*
X-5480250Y+8051880D01*
X-5496125Y+8036640D01*
X-5575500Y+8036640D01*
X-5496125Y+8036640D02*
X-5480250Y+8021400D01*
X-5480250Y+7990920D01*
X-5353250Y+7990920D02*
X-5448500Y+7990920D01*
X-5448500Y+8082360D01*
X-5353250Y+8082360D01*
X-5448500Y+8036640D02*
X-5385000Y+8036640D01*
X-5321500Y+8006160D02*
X-5305625Y+7990920D01*
X-5242125Y+7990920D01*
X-5226250Y+8006160D01*
X-5226250Y+8021400D01*
X-5242125Y+8036640D01*
X-5305625Y+8036640D01*
X-5321500Y+8051880D01*
X-5321500Y+8067120D01*
X-5305625Y+8082360D01*
X-5242125Y+8082360D01*
X-5226250Y+8067120D01*
X-5067500Y+7990920D02*
X-5067500Y+8051880D01*
X-5035750Y+8082360D01*
X-5004000Y+8082360D01*
X-4972250Y+8051880D01*
X-4972250Y+7990920D01*
X-5067500Y+8021400D02*
X-4972250Y+8021400D01*
X-4940500Y+7990920D02*
X-4940500Y+8082360D01*
X-4877000Y+8082360D01*
X-4845250Y+8051880D01*
X-4845250Y+8021400D01*
X-4877000Y+7990920D01*
X-4940500Y+7990920D01*
X-4718250Y+8006160D02*
X-4734125Y+7990920D01*
X-4781750Y+7990920D01*
X-4813500Y+8021400D01*
X-4813500Y+8051880D01*
X-4781750Y+8082360D01*
X-4734125Y+8082360D01*
X-4718250Y+8067120D01*
X-6373000Y+9373000D02*
X-6373000Y+9246000D01*
X-6500000Y+9119000D02*
X-6497564Y+9093124D01*
X-6490515Y+9069152D01*
X-6479238Y+9047562D01*
X-6464122Y+9028830D01*
X-6445554Y+9013431D01*
X-6423919Y+9001842D01*
X-6399606Y+8994540D01*
X-6373000Y+8992000D01*
X-6500000Y+9119000D02*
X-6497564Y+9145606D01*
X-6490515Y+9169919D01*
X-6479238Y+9191554D01*
X-6464122Y+9210122D01*
X-6445554Y+9225238D01*
X-6423919Y+9236515D01*
X-6399606Y+9243564D01*
X-6373000Y+9246000D01*
X-6373000Y+8992000D02*
X-6373000Y+8865000D01*
X-8405000Y+9373000D02*
X-8405000Y+8865000D01*
X-6373000Y+9373000D02*
X-8405000Y+9373000D01*
X-8405000Y+8865000D02*
X-6373000Y+8865000D01*
X-8490920Y+8738000D02*
X-8582360Y+8738000D01*
X-8582360Y+8817375D01*
X-8567120Y+8833250D01*
X-8551880Y+8833250D01*
X-8536640Y+8817375D01*
X-8536640Y+8738000D01*
X-8536640Y+8817375D02*
X-8521400Y+8833250D01*
X-8490920Y+8833250D01*
X-8490920Y+8960250D02*
X-8490920Y+8865000D01*
X-8582360Y+8865000D01*
X-8582360Y+8960250D01*
X-8536640Y+8865000D02*
X-8536640Y+8928500D01*
X-8506160Y+8992000D02*
X-8490920Y+9007875D01*
X-8490920Y+9071375D01*
X-8506160Y+9087250D01*
X-8521400Y+9087250D01*
X-8536640Y+9071375D01*
X-8536640Y+9007875D01*
X-8551880Y+8992000D01*
X-8567120Y+8992000D01*
X-8582360Y+9007875D01*
X-8582360Y+9071375D01*
X-8567120Y+9087250D01*
X-8506160Y+9246000D02*
X-8490920Y+9261875D01*
X-8490920Y+9325375D01*
X-8506160Y+9341250D01*
X-8521400Y+9341250D01*
X-8536640Y+9325375D01*
X-8536640Y+9261875D01*
X-8551880Y+9246000D01*
X-8567120Y+9246000D01*
X-8582360Y+9261875D01*
X-8582360Y+9325375D01*
X-8567120Y+9341250D01*
X-8582360Y+9373000D02*
X-8490920Y+9373000D01*
X-8536640Y+9420625D01*
X-8490920Y+9468250D01*
X-8582360Y+9468250D01*
D70*
X-5961900Y+10440500D02*
X-5962031Y+10443658D01*
X-5963097Y+10449976D01*
X-5965328Y+10456294D01*
X-5968973Y+10462612D01*
X-5974548Y+10468851D01*
X-5980866Y+10473447D01*
X-5987184Y+10476380D01*
X-5993502Y+10478042D01*
X-5999820Y+10478600D01*
X-6000000Y+10478600D01*
X-6038100Y+10440500D02*
X-6037969Y+10443658D01*
X-6036903Y+10449976D01*
X-6034672Y+10456294D01*
X-6031027Y+10462612D01*
X-6025452Y+10468851D01*
X-6019134Y+10473447D01*
X-6012816Y+10476380D01*
X-6006498Y+10478042D01*
X-6000180Y+10478600D01*
X-6000000Y+10478600D01*
X-6038100Y+10440500D02*
X-6037969Y+10437342D01*
X-6036903Y+10431024D01*
X-6034672Y+10424706D01*
X-6031027Y+10418388D01*
X-6025452Y+10412149D01*
X-6019134Y+10407553D01*
X-6012816Y+10404620D01*
X-6006498Y+10402958D01*
X-6000180Y+10402400D01*
X-6000000Y+10402400D01*
X-5961900Y+10440500D02*
X-5962031Y+10437342D01*
X-5963097Y+10431024D01*
X-5965328Y+10424706D01*
X-5968973Y+10418388D01*
X-5974548Y+10412149D01*
X-5980866Y+10407553D01*
X-5987184Y+10404620D01*
X-5993502Y+10402958D01*
X-5999820Y+10402400D01*
X-6000000Y+10402400D01*
D71*
X-6368300Y+10123000D02*
X-5377700Y+10123000D01*
X-5377700Y+10377000D01*
X-6368300Y+10377000D01*
X-6368300Y+10123000D01*
D20*
X-6063500Y+9799720D02*
X-6047625Y+9784480D01*
X-5984125Y+9784480D01*
X-5968250Y+9799720D01*
X-5968250Y+9814960D01*
X-5984125Y+9830200D01*
X-6047625Y+9830200D01*
X-6063500Y+9845440D01*
X-6063500Y+9860680D01*
X-6047625Y+9875920D01*
X-5984125Y+9875920D01*
X-5968250Y+9860680D01*
X-5841250Y+9784480D02*
X-5936500Y+9784480D01*
X-5936500Y+9875920D01*
X-5841250Y+9875920D01*
X-5936500Y+9830200D02*
X-5873000Y+9830200D01*
X-5809500Y+9875920D02*
X-5714250Y+9875920D01*
X-5761875Y+9875920D02*
X-5761875Y+9784480D01*
D70*
X-7211900Y+10440500D02*
X-7212031Y+10443658D01*
X-7213097Y+10449976D01*
X-7215328Y+10456294D01*
X-7218973Y+10462612D01*
X-7224548Y+10468851D01*
X-7230866Y+10473447D01*
X-7237184Y+10476380D01*
X-7243502Y+10478042D01*
X-7249820Y+10478600D01*
X-7250000Y+10478600D01*
X-7288100Y+10440500D02*
X-7287969Y+10443658D01*
X-7286903Y+10449976D01*
X-7284672Y+10456294D01*
X-7281027Y+10462612D01*
X-7275452Y+10468851D01*
X-7269134Y+10473447D01*
X-7262816Y+10476380D01*
X-7256498Y+10478042D01*
X-7250180Y+10478600D01*
X-7250000Y+10478600D01*
X-7288100Y+10440500D02*
X-7287969Y+10437342D01*
X-7286903Y+10431024D01*
X-7284672Y+10424706D01*
X-7281027Y+10418388D01*
X-7275452Y+10412149D01*
X-7269134Y+10407553D01*
X-7262816Y+10404620D01*
X-7256498Y+10402958D01*
X-7250180Y+10402400D01*
X-7250000Y+10402400D01*
X-7211900Y+10440500D02*
X-7212031Y+10437342D01*
X-7213097Y+10431024D01*
X-7215328Y+10424706D01*
X-7218973Y+10418388D01*
X-7224548Y+10412149D01*
X-7230866Y+10407553D01*
X-7237184Y+10404620D01*
X-7243502Y+10402958D01*
X-7249820Y+10402400D01*
X-7250000Y+10402400D01*
D71*
X-7618300Y+10123000D02*
X-6627700Y+10123000D01*
X-6627700Y+10377000D01*
X-7618300Y+10377000D01*
X-7618300Y+10123000D01*
D20*
X-7297625Y+9875920D02*
X-7234125Y+9875920D01*
X-7265875Y+9875920D02*
X-7265875Y+9784480D01*
X-7297625Y+9784480D02*
X-7234125Y+9784480D01*
X-7186500Y+9784480D02*
X-7186500Y+9875920D01*
X-7091250Y+9784480D01*
X-7091250Y+9875920D01*
X-6964250Y+9799720D02*
X-6980125Y+9784480D01*
X-7027750Y+9784480D01*
X-7059500Y+9814960D01*
X-7059500Y+9845440D01*
X-7027750Y+9875920D01*
X-6980125Y+9875920D01*
X-6964250Y+9860680D01*
D70*
X-8461900Y+10440500D02*
X-8462031Y+10443658D01*
X-8463097Y+10449976D01*
X-8465328Y+10456294D01*
X-8468973Y+10462612D01*
X-8474548Y+10468851D01*
X-8480866Y+10473447D01*
X-8487184Y+10476380D01*
X-8493502Y+10478042D01*
X-8499820Y+10478600D01*
X-8500000Y+10478600D01*
X-8538100Y+10440500D02*
X-8537969Y+10443658D01*
X-8536903Y+10449976D01*
X-8534672Y+10456294D01*
X-8531027Y+10462612D01*
X-8525452Y+10468851D01*
X-8519134Y+10473447D01*
X-8512816Y+10476380D01*
X-8506498Y+10478042D01*
X-8500180Y+10478600D01*
X-8500000Y+10478600D01*
X-8538100Y+10440500D02*
X-8537969Y+10437342D01*
X-8536903Y+10431024D01*
X-8534672Y+10424706D01*
X-8531027Y+10418388D01*
X-8525452Y+10412149D01*
X-8519134Y+10407553D01*
X-8512816Y+10404620D01*
X-8506498Y+10402958D01*
X-8500180Y+10402400D01*
X-8500000Y+10402400D01*
X-8461900Y+10440500D02*
X-8462031Y+10437342D01*
X-8463097Y+10431024D01*
X-8465328Y+10424706D01*
X-8468973Y+10418388D01*
X-8474548Y+10412149D01*
X-8480866Y+10407553D01*
X-8487184Y+10404620D01*
X-8493502Y+10402958D01*
X-8499820Y+10402400D01*
X-8500000Y+10402400D01*
D71*
X-8868300Y+10123000D02*
X-7877700Y+10123000D01*
X-7877700Y+10377000D01*
X-8868300Y+10377000D01*
X-8868300Y+10123000D01*
D20*
X-8563500Y+9784480D02*
X-8563500Y+9875920D01*
X-8500000Y+9875920D01*
X-8468250Y+9845440D01*
X-8468250Y+9814960D01*
X-8500000Y+9784480D01*
X-8563500Y+9784480D01*
X-8341250Y+9784480D02*
X-8436500Y+9784480D01*
X-8436500Y+9875920D01*
X-8341250Y+9875920D01*
X-8436500Y+9830200D02*
X-8373000Y+9830200D01*
X-8214250Y+9799720D02*
X-8230125Y+9784480D01*
X-8277750Y+9784480D01*
X-8309500Y+9814960D01*
X-8309500Y+9845440D01*
X-8277750Y+9875920D01*
X-8230125Y+9875920D01*
X-8214250Y+9860680D01*
D70*
X-9711900Y+10440500D02*
X-9712031Y+10443658D01*
X-9713097Y+10449976D01*
X-9715328Y+10456294D01*
X-9718973Y+10462612D01*
X-9724548Y+10468851D01*
X-9730866Y+10473447D01*
X-9737184Y+10476380D01*
X-9743502Y+10478042D01*
X-9749820Y+10478600D01*
X-9750000Y+10478600D01*
X-9788100Y+10440500D02*
X-9787969Y+10443658D01*
X-9786903Y+10449976D01*
X-9784672Y+10456294D01*
X-9781027Y+10462612D01*
X-9775452Y+10468851D01*
X-9769134Y+10473447D01*
X-9762816Y+10476380D01*
X-9756498Y+10478042D01*
X-9750180Y+10478600D01*
X-9750000Y+10478600D01*
X-9788100Y+10440500D02*
X-9787969Y+10437342D01*
X-9786903Y+10431024D01*
X-9784672Y+10424706D01*
X-9781027Y+10418388D01*
X-9775452Y+10412149D01*
X-9769134Y+10407553D01*
X-9762816Y+10404620D01*
X-9756498Y+10402958D01*
X-9750180Y+10402400D01*
X-9750000Y+10402400D01*
X-9711900Y+10440500D02*
X-9712031Y+10437342D01*
X-9713097Y+10431024D01*
X-9715328Y+10424706D01*
X-9718973Y+10418388D01*
X-9724548Y+10412149D01*
X-9730866Y+10407553D01*
X-9737184Y+10404620D01*
X-9743502Y+10402958D01*
X-9749820Y+10402400D01*
X-9750000Y+10402400D01*
D71*
X-10118300Y+10123000D02*
X-9127700Y+10123000D01*
X-9127700Y+10377000D01*
X-10118300Y+10377000D01*
X-10118300Y+10123000D01*
D20*
X-9940500Y+9784480D02*
X-9940500Y+9875920D01*
X-9861125Y+9875920D01*
X-9845250Y+9860680D01*
X-9845250Y+9845440D01*
X-9861125Y+9830200D01*
X-9940500Y+9830200D01*
X-9861125Y+9830200D02*
X-9845250Y+9814960D01*
X-9845250Y+9784480D01*
X-9718250Y+9784480D02*
X-9813500Y+9784480D01*
X-9813500Y+9875920D01*
X-9718250Y+9875920D01*
X-9813500Y+9830200D02*
X-9750000Y+9830200D01*
X-9686500Y+9799720D02*
X-9670625Y+9784480D01*
X-9607125Y+9784480D01*
X-9591250Y+9799720D01*
X-9591250Y+9814960D01*
X-9607125Y+9830200D01*
X-9670625Y+9830200D01*
X-9686500Y+9845440D01*
X-9686500Y+9860680D01*
X-9670625Y+9875920D01*
X-9607125Y+9875920D01*
X-9591250Y+9860680D01*
X-9464250Y+9784480D02*
X-9559500Y+9784480D01*
X-9559500Y+9875920D01*
X-9464250Y+9875920D01*
X-9559500Y+9830200D02*
X-9496000Y+9830200D01*
X-9432500Y+9875920D02*
X-9337250Y+9875920D01*
X-9384875Y+9875920D02*
X-9384875Y+9784480D01*
X-8750000Y+4877000D02*
X-8750000Y+5004000D01*
X-8813500Y+5004000D02*
X-8686500Y+5004000D01*
X-8686500Y+5512000D01*
X-8813500Y+5512000D01*
X-8813500Y+5004000D01*
X-8750000Y+5512000D02*
X-8750000Y+5639000D01*
X-8854140Y+5131000D02*
X-8945580Y+5131000D01*
X-8945580Y+5210375D01*
X-8930340Y+5226250D01*
X-8915100Y+5226250D01*
X-8899860Y+5210375D01*
X-8899860Y+5131000D01*
X-8899860Y+5210375D02*
X-8884620Y+5226250D01*
X-8854140Y+5226250D01*
X-8915100Y+5289750D02*
X-8945580Y+5321500D01*
X-8854140Y+5321500D01*
X-10000000Y+5377000D02*
X-9974124Y+5371920D01*
X-9950152Y+5357315D01*
X-9928562Y+5334138D01*
X-9909830Y+5303340D01*
X-9894431Y+5265875D01*
X-9882842Y+5222695D01*
X-9875540Y+5174752D01*
X-9873000Y+5123000D01*
X-10000000Y+4869000D02*
X-9974124Y+4874080D01*
X-9950152Y+4888685D01*
X-9928562Y+4911862D01*
X-9909830Y+4942660D01*
X-9894431Y+4980125D01*
X-9882842Y+5023305D01*
X-9875540Y+5071248D01*
X-9873000Y+5123000D01*
X-10000000Y+5377000D02*
X-10025876Y+5371920D01*
X-10049848Y+5357315D01*
X-10071438Y+5334138D01*
X-10090170Y+5303340D01*
X-10105569Y+5265875D01*
X-10117158Y+5222695D01*
X-10124460Y+5174752D01*
X-10127000Y+5123000D01*
X-10000000Y+4869000D02*
X-10025876Y+4874080D01*
X-10049848Y+4888685D01*
X-10071438Y+4911862D01*
X-10090170Y+4942660D01*
X-10105569Y+4980125D01*
X-10117158Y+5023305D01*
X-10124460Y+5071248D01*
X-10127000Y+5123000D01*
X-9756160Y+5091250D02*
X-9740920Y+5075375D01*
X-9740920Y+5027750D01*
X-9771400Y+4996000D01*
X-9801880Y+4996000D01*
X-9832360Y+5027750D01*
X-9832360Y+5075375D01*
X-9817120Y+5091250D01*
X-9801880Y+5154750D02*
X-9832360Y+5186500D01*
X-9740920Y+5186500D01*
X-12123000Y+6000000D02*
X-12123427Y+6010409D01*
X-12126899Y+6031228D01*
X-12134155Y+6052047D01*
X-12145983Y+6072866D01*
X-12164080Y+6093524D01*
X-12184899Y+6109045D01*
X-12205718Y+6119030D01*
X-12226537Y+6124814D01*
X-12247356Y+6126972D01*
X-12250000Y+6127000D01*
X-12377000Y+6000000D02*
X-12376573Y+6010409D01*
X-12373101Y+6031228D01*
X-12365845Y+6052047D01*
X-12354017Y+6072866D01*
X-12335920Y+6093524D01*
X-12315101Y+6109045D01*
X-12294282Y+6119030D01*
X-12273463Y+6124814D01*
X-12252644Y+6126972D01*
X-12250000Y+6127000D01*
X-12377000Y+6000000D02*
X-12376573Y+5989591D01*
X-12373101Y+5968772D01*
X-12365845Y+5947953D01*
X-12354017Y+5927134D01*
X-12335920Y+5906476D01*
X-12315101Y+5890955D01*
X-12294282Y+5880970D01*
X-12273463Y+5875186D01*
X-12252644Y+5873028D01*
X-12250000Y+5873000D01*
X-12123000Y+6000000D02*
X-12123427Y+5989591D01*
X-12126899Y+5968772D01*
X-12134155Y+5947953D01*
X-12145983Y+5927134D01*
X-12164080Y+5906476D01*
X-12184899Y+5890955D01*
X-12205718Y+5880970D01*
X-12226537Y+5875186D01*
X-12247356Y+5873028D01*
X-12250000Y+5873000D01*
X-12186500Y+6000000D02*
X-12186717Y+6005247D01*
X-12188482Y+6015742D01*
X-12192174Y+6026237D01*
X-12198202Y+6036732D01*
X-12207424Y+6047112D01*
X-12217919Y+6054800D01*
X-12228414Y+6059718D01*
X-12238909Y+6062524D01*
X-12249404Y+6063497D01*
X-12250000Y+6063500D01*
X-12313500Y+6000000D02*
X-12313283Y+6005247D01*
X-12311518Y+6015742D01*
X-12307826Y+6026237D01*
X-12301798Y+6036732D01*
X-12292576Y+6047112D01*
X-12282081Y+6054800D01*
X-12271586Y+6059718D01*
X-12261091Y+6062524D01*
X-12250596Y+6063497D01*
X-12250000Y+6063500D01*
X-12313500Y+6000000D02*
X-12313283Y+5994753D01*
X-12311518Y+5984258D01*
X-12307826Y+5973763D01*
X-12301798Y+5963268D01*
X-12292576Y+5952888D01*
X-12282081Y+5945200D01*
X-12271586Y+5940282D01*
X-12261091Y+5937476D01*
X-12250596Y+5936503D01*
X-12250000Y+5936500D01*
X-12186500Y+6000000D02*
X-12186717Y+5994753D01*
X-12188482Y+5984258D01*
X-12192174Y+5973763D01*
X-12198202Y+5963268D01*
X-12207424Y+5952888D01*
X-12217919Y+5945200D01*
X-12228414Y+5940282D01*
X-12238909Y+5937476D01*
X-12249404Y+5936503D01*
X-12250000Y+5936500D01*
X-13194500Y+6167640D02*
X-13194500Y+6259080D01*
X-13115125Y+6259080D01*
X-13099250Y+6243840D01*
X-13099250Y+6228600D01*
X-13115125Y+6213360D01*
X-13194500Y+6213360D01*
X-13067500Y+6228600D02*
X-13035750Y+6259080D01*
X-13004000Y+6259080D01*
X-12972250Y+6228600D01*
X-12972250Y+6198120D01*
X-13004000Y+6167640D01*
X-13035750Y+6167640D01*
X-13067500Y+6198120D01*
X-13067500Y+6228600D01*
X-12940500Y+6259080D02*
X-12845250Y+6259080D01*
X-12892875Y+6259080D02*
X-12892875Y+6167640D01*
X-12623000Y+6198120D02*
X-12591250Y+6198120D01*
X-12591250Y+6167640D01*
X-12654750Y+6167640D01*
X-12686500Y+6198120D01*
X-12686500Y+6228600D01*
X-12654750Y+6259080D01*
X-12607125Y+6259080D01*
X-12591250Y+6243840D01*
X-12559500Y+6167640D02*
X-12559500Y+6259080D01*
X-12464250Y+6167640D01*
X-12464250Y+6259080D01*
X-12432500Y+6167640D02*
X-12432500Y+6259080D01*
X-12369000Y+6259080D01*
X-12337250Y+6228600D01*
X-12337250Y+6198120D01*
X-12369000Y+6167640D01*
X-12432500Y+6167640D01*
X-11873000Y+5500000D02*
X-11873427Y+5510409D01*
X-11876899Y+5531228D01*
X-11884155Y+5552047D01*
X-11895983Y+5572866D01*
X-11914080Y+5593524D01*
X-11934899Y+5609045D01*
X-11955718Y+5619030D01*
X-11976537Y+5624814D01*
X-11997356Y+5626972D01*
X-12000000Y+5627000D01*
X-12127000Y+5500000D02*
X-12126573Y+5510409D01*
X-12123101Y+5531228D01*
X-12115845Y+5552047D01*
X-12104017Y+5572866D01*
X-12085920Y+5593524D01*
X-12065101Y+5609045D01*
X-12044282Y+5619030D01*
X-12023463Y+5624814D01*
X-12002644Y+5626972D01*
X-12000000Y+5627000D01*
X-12127000Y+5500000D02*
X-12126573Y+5489591D01*
X-12123101Y+5468772D01*
X-12115845Y+5447953D01*
X-12104017Y+5427134D01*
X-12085920Y+5406476D01*
X-12065101Y+5390955D01*
X-12044282Y+5380970D01*
X-12023463Y+5375186D01*
X-12002644Y+5373028D01*
X-12000000Y+5373000D01*
X-11873000Y+5500000D02*
X-11873427Y+5489591D01*
X-11876899Y+5468772D01*
X-11884155Y+5447953D01*
X-11895983Y+5427134D01*
X-11914080Y+5406476D01*
X-11934899Y+5390955D01*
X-11955718Y+5380970D01*
X-11976537Y+5375186D01*
X-11997356Y+5373028D01*
X-12000000Y+5373000D01*
X-11936500Y+5500000D02*
X-11936717Y+5505247D01*
X-11938482Y+5515742D01*
X-11942174Y+5526237D01*
X-11948202Y+5536732D01*
X-11957424Y+5547112D01*
X-11967919Y+5554800D01*
X-11978414Y+5559718D01*
X-11988909Y+5562524D01*
X-11999404Y+5563497D01*
X-12000000Y+5563500D01*
X-12063500Y+5500000D02*
X-12063283Y+5505247D01*
X-12061518Y+5515742D01*
X-12057826Y+5526237D01*
X-12051798Y+5536732D01*
X-12042576Y+5547112D01*
X-12032081Y+5554800D01*
X-12021586Y+5559718D01*
X-12011091Y+5562524D01*
X-12000596Y+5563497D01*
X-12000000Y+5563500D01*
X-12063500Y+5500000D02*
X-12063283Y+5494753D01*
X-12061518Y+5484258D01*
X-12057826Y+5473763D01*
X-12051798Y+5463268D01*
X-12042576Y+5452888D01*
X-12032081Y+5445200D01*
X-12021586Y+5440282D01*
X-12011091Y+5437476D01*
X-12000596Y+5436503D01*
X-12000000Y+5436500D01*
X-11936500Y+5500000D02*
X-11936717Y+5494753D01*
X-11938482Y+5484258D01*
X-11942174Y+5473763D01*
X-11948202Y+5463268D01*
X-11957424Y+5452888D01*
X-11967919Y+5445200D01*
X-11978414Y+5440282D01*
X-11988909Y+5437476D01*
X-11999404Y+5436503D01*
X-12000000Y+5436500D01*
X-12444500Y+5167640D02*
X-12444500Y+5259080D01*
X-12365125Y+5259080D01*
X-12349250Y+5243840D01*
X-12349250Y+5228600D01*
X-12365125Y+5213360D01*
X-12444500Y+5213360D01*
X-12317500Y+5228600D02*
X-12285750Y+5259080D01*
X-12254000Y+5259080D01*
X-12222250Y+5228600D01*
X-12222250Y+5198120D01*
X-12254000Y+5167640D01*
X-12285750Y+5167640D01*
X-12317500Y+5198120D01*
X-12317500Y+5228600D01*
X-12190500Y+5259080D02*
X-12095250Y+5259080D01*
X-12142875Y+5259080D02*
X-12142875Y+5167640D01*
X-11936500Y+5259080D02*
X-11936500Y+5213360D01*
X-11888875Y+5167640D01*
X-11841250Y+5213360D01*
X-11841250Y+5259080D01*
X-11809500Y+5167640D02*
X-11809500Y+5228600D01*
X-11777750Y+5259080D01*
X-11746000Y+5259080D01*
X-11714250Y+5228600D01*
X-11714250Y+5167640D01*
X-11809500Y+5198120D02*
X-11714250Y+5198120D01*
X-11682500Y+5167640D02*
X-11682500Y+5259080D01*
X-11603125Y+5259080D01*
X-11587250Y+5243840D01*
X-11587250Y+5228600D01*
X-11603125Y+5213360D01*
X-11682500Y+5213360D01*
X-11603125Y+5213360D02*
X-11587250Y+5198120D01*
X-11587250Y+5167640D01*
X-11623000Y+6000000D02*
X-11623427Y+6010409D01*
X-11626899Y+6031228D01*
X-11634155Y+6052047D01*
X-11645983Y+6072866D01*
X-11664080Y+6093524D01*
X-11684899Y+6109045D01*
X-11705718Y+6119030D01*
X-11726537Y+6124814D01*
X-11747356Y+6126972D01*
X-11750000Y+6127000D01*
X-11877000Y+6000000D02*
X-11876573Y+6010409D01*
X-11873101Y+6031228D01*
X-11865845Y+6052047D01*
X-11854017Y+6072866D01*
X-11835920Y+6093524D01*
X-11815101Y+6109045D01*
X-11794282Y+6119030D01*
X-11773463Y+6124814D01*
X-11752644Y+6126972D01*
X-11750000Y+6127000D01*
X-11877000Y+6000000D02*
X-11876573Y+5989591D01*
X-11873101Y+5968772D01*
X-11865845Y+5947953D01*
X-11854017Y+5927134D01*
X-11835920Y+5906476D01*
X-11815101Y+5890955D01*
X-11794282Y+5880970D01*
X-11773463Y+5875186D01*
X-11752644Y+5873028D01*
X-11750000Y+5873000D01*
X-11623000Y+6000000D02*
X-11623427Y+5989591D01*
X-11626899Y+5968772D01*
X-11634155Y+5947953D01*
X-11645983Y+5927134D01*
X-11664080Y+5906476D01*
X-11684899Y+5890955D01*
X-11705718Y+5880970D01*
X-11726537Y+5875186D01*
X-11747356Y+5873028D01*
X-11750000Y+5873000D01*
X-11686500Y+6000000D02*
X-11686717Y+6005247D01*
X-11688482Y+6015742D01*
X-11692174Y+6026237D01*
X-11698202Y+6036732D01*
X-11707424Y+6047112D01*
X-11717919Y+6054800D01*
X-11728414Y+6059718D01*
X-11738909Y+6062524D01*
X-11749404Y+6063497D01*
X-11750000Y+6063500D01*
X-11813500Y+6000000D02*
X-11813283Y+6005247D01*
X-11811518Y+6015742D01*
X-11807826Y+6026237D01*
X-11801798Y+6036732D01*
X-11792576Y+6047112D01*
X-11782081Y+6054800D01*
X-11771586Y+6059718D01*
X-11761091Y+6062524D01*
X-11750596Y+6063497D01*
X-11750000Y+6063500D01*
X-11813500Y+6000000D02*
X-11813283Y+5994753D01*
X-11811518Y+5984258D01*
X-11807826Y+5973763D01*
X-11801798Y+5963268D01*
X-11792576Y+5952888D01*
X-11782081Y+5945200D01*
X-11771586Y+5940282D01*
X-11761091Y+5937476D01*
X-11750596Y+5936503D01*
X-11750000Y+5936500D01*
X-11686500Y+6000000D02*
X-11686717Y+5994753D01*
X-11688482Y+5984258D01*
X-11692174Y+5973763D01*
X-11698202Y+5963268D01*
X-11707424Y+5952888D01*
X-11717919Y+5945200D01*
X-11728414Y+5940282D01*
X-11738909Y+5937476D01*
X-11749404Y+5936503D01*
X-11750000Y+5936500D01*
X-11631000Y+6167640D02*
X-11631000Y+6259080D01*
X-11551625Y+6259080D01*
X-11535750Y+6243840D01*
X-11535750Y+6228600D01*
X-11551625Y+6213360D01*
X-11631000Y+6213360D01*
X-11504000Y+6228600D02*
X-11472250Y+6259080D01*
X-11440500Y+6259080D01*
X-11408750Y+6228600D01*
X-11408750Y+6198120D01*
X-11440500Y+6167640D01*
X-11472250Y+6167640D01*
X-11504000Y+6198120D01*
X-11504000Y+6228600D01*
X-11377000Y+6259080D02*
X-11281750Y+6259080D01*
X-11329375Y+6259080D02*
X-11329375Y+6167640D01*
X-11107125Y+6259080D02*
X-11043625Y+6259080D01*
X-11075375Y+6259080D02*
X-11075375Y+6167640D01*
X-11107125Y+6167640D02*
X-11043625Y+6167640D01*
X-10996000Y+6167640D02*
X-10996000Y+6259080D01*
X-10900750Y+6167640D01*
X-10900750Y+6259080D01*
X-6000000Y+9373000D02*
X-6000000Y+9246000D01*
X-6063500Y+8738000D02*
X-5936500Y+8738000D01*
X-5936500Y+9246000D01*
X-6063500Y+9246000D01*
X-6063500Y+8738000D01*
X-6000000Y+8738000D02*
X-6000000Y+8611000D01*
X-5804420Y+8865000D02*
X-5895860Y+8865000D01*
X-5895860Y+8944375D01*
X-5880620Y+8960250D01*
X-5865380Y+8960250D01*
X-5850140Y+8944375D01*
X-5850140Y+8865000D01*
X-5850140Y+8944375D02*
X-5834900Y+8960250D01*
X-5804420Y+8960250D01*
X-5895860Y+9007875D02*
X-5895860Y+9087250D01*
X-5880620Y+9087250D01*
X-5804420Y+9007875D01*
X-6093600Y+4500000D02*
X-6095653Y+4457764D01*
X-6101686Y+4416904D01*
X-6111515Y+4377607D01*
X-6124953Y+4340059D01*
X-6141814Y+4304446D01*
X-6161912Y+4270954D01*
X-6211075Y+4211075D01*
X-6270953Y+4161912D01*
X-6304446Y+4141814D01*
X-6340059Y+4124953D01*
X-6377607Y+4111515D01*
X-6416904Y+4101686D01*
X-6457764Y+4095653D01*
X-6500000Y+4093600D01*
X-6906400Y+4500000D02*
X-6904347Y+4457764D01*
X-6898314Y+4416904D01*
X-6888485Y+4377607D01*
X-6875047Y+4340059D01*
X-6858186Y+4304446D01*
X-6838088Y+4270954D01*
X-6788925Y+4211075D01*
X-6729047Y+4161912D01*
X-6695554Y+4141814D01*
X-6659941Y+4124953D01*
X-6622393Y+4111515D01*
X-6583096Y+4101686D01*
X-6542236Y+4095653D01*
X-6500000Y+4093600D01*
X-6093600Y+4500000D02*
X-6100585Y+4573660D01*
X-6119000Y+4639700D01*
X-6906400Y+4500000D02*
X-6899415Y+4573660D01*
X-6881000Y+4639700D01*
X-6119000Y+4639700D02*
X-6881000Y+4639700D01*
X-6754000Y+4052960D02*
X-6754000Y+3961520D01*
X-6658750Y+3961520D01*
X-6627000Y+3961520D02*
X-6627000Y+4052960D01*
X-6579375Y+4007240D01*
X-6531750Y+4052960D01*
X-6531750Y+3961520D01*
X-6484125Y+4037720D02*
X-6468250Y+4052960D01*
X-6420625Y+4052960D01*
X-6404750Y+4037720D01*
X-6404750Y+4022480D01*
X-6420625Y+4007240D01*
X-6404750Y+3992000D01*
X-6404750Y+3976760D01*
X-6420625Y+3961520D01*
X-6468250Y+3961520D01*
X-6484125Y+3976760D01*
X-6452375Y+4007240D02*
X-6420625Y+4007240D01*
X-6277750Y+4052960D02*
X-6357125Y+4052960D01*
X-6357125Y+4022480D01*
X-6293625Y+4022480D01*
X-6277750Y+4007240D01*
X-6277750Y+3976760D01*
X-6293625Y+3961520D01*
X-6341250Y+3961520D01*
X-6357125Y+3976760D01*
D70*
X-10511900Y+6190500D02*
X-10512031Y+6193658D01*
X-10513097Y+6199976D01*
X-10515328Y+6206294D01*
X-10518973Y+6212612D01*
X-10524548Y+6218851D01*
X-10530866Y+6223447D01*
X-10537184Y+6226380D01*
X-10543502Y+6228042D01*
X-10549820Y+6228600D01*
X-10550000Y+6228600D01*
X-10588100Y+6190500D02*
X-10587969Y+6193658D01*
X-10586903Y+6199976D01*
X-10584672Y+6206294D01*
X-10581027Y+6212612D01*
X-10575452Y+6218851D01*
X-10569134Y+6223447D01*
X-10562816Y+6226380D01*
X-10556498Y+6228042D01*
X-10550180Y+6228600D01*
X-10550000Y+6228600D01*
X-10588100Y+6190500D02*
X-10587969Y+6187342D01*
X-10586903Y+6181024D01*
X-10584672Y+6174706D01*
X-10581027Y+6168388D01*
X-10575452Y+6162149D01*
X-10569134Y+6157553D01*
X-10562816Y+6154620D01*
X-10556498Y+6152958D01*
X-10550180Y+6152400D01*
X-10550000Y+6152400D01*
X-10511900Y+6190500D02*
X-10512031Y+6187342D01*
X-10513097Y+6181024D01*
X-10515328Y+6174706D01*
X-10518973Y+6168388D01*
X-10524548Y+6162149D01*
X-10530866Y+6157553D01*
X-10537184Y+6154620D01*
X-10543502Y+6152958D01*
X-10549820Y+6152400D01*
X-10550000Y+6152400D01*
D71*
X-9080150Y+6119380D02*
X-10619850Y+6119380D01*
X-10619850Y+6075865D01*
X-10619850Y+5880620D02*
X-9080150Y+5880620D01*
X-9080150Y+5924135D01*
X-9080150Y+6075865D02*
X-9080150Y+6119380D01*
X-10619850Y+5924135D02*
X-10619850Y+5880620D01*
D20*
X-11179500Y+5751080D02*
X-11179500Y+5842520D01*
X-11116000Y+5842520D01*
X-11084250Y+5812040D01*
X-11084250Y+5781560D01*
X-11116000Y+5751080D01*
X-11179500Y+5751080D01*
X-11036625Y+5842520D02*
X-10973125Y+5842520D01*
X-11004875Y+5842520D02*
X-11004875Y+5751080D01*
X-11036625Y+5751080D02*
X-10973125Y+5751080D01*
X-10925500Y+5766320D02*
X-10909625Y+5751080D01*
X-10846125Y+5751080D01*
X-10830250Y+5766320D01*
X-10830250Y+5781560D01*
X-10846125Y+5796800D01*
X-10909625Y+5796800D01*
X-10925500Y+5812040D01*
X-10925500Y+5827280D01*
X-10909625Y+5842520D01*
X-10846125Y+5842520D01*
X-10830250Y+5827280D01*
X-10798500Y+5751080D02*
X-10798500Y+5842520D01*
X-10719125Y+5842520D01*
X-10703250Y+5827280D01*
X-10703250Y+5812040D01*
X-10719125Y+5796800D01*
X-10798500Y+5796800D01*
X-10671500Y+5842520D02*
X-10671500Y+5751080D01*
X-10576250Y+5751080D01*
X-10544500Y+5751080D02*
X-10544500Y+5812040D01*
X-10512750Y+5842520D01*
X-10481000Y+5842520D01*
X-10449250Y+5812040D01*
X-10449250Y+5751080D01*
X-10544500Y+5781560D02*
X-10449250Y+5781560D01*
X-10322250Y+5842520D02*
X-10417500Y+5751080D01*
X-10417500Y+5842520D02*
X-10369875Y+5796800D01*
X-10163500Y+5751080D02*
X-10163500Y+5842520D01*
X-10100000Y+5842520D01*
X-10068250Y+5812040D01*
X-10068250Y+5781560D01*
X-10100000Y+5751080D01*
X-10163500Y+5751080D01*
X-10036500Y+5751080D02*
X-10036500Y+5812040D01*
X-10004750Y+5842520D01*
X-9973000Y+5842520D01*
X-9941250Y+5812040D01*
X-9941250Y+5751080D01*
X-10036500Y+5781560D02*
X-9941250Y+5781560D01*
X-9909500Y+5842520D02*
X-9814250Y+5842520D01*
X-9861875Y+5842520D02*
X-9861875Y+5751080D01*
X-9782500Y+5751080D02*
X-9782500Y+5812040D01*
X-9750750Y+5842520D01*
X-9719000Y+5842520D01*
X-9687250Y+5812040D01*
X-9687250Y+5751080D01*
X-9782500Y+5781560D02*
X-9687250Y+5781560D01*
X-9528500Y+5751080D02*
X-9528500Y+5842520D01*
X-9449125Y+5842520D01*
X-9433250Y+5827280D01*
X-9433250Y+5812040D01*
X-9449125Y+5796800D01*
X-9528500Y+5796800D01*
X-9385625Y+5842520D02*
X-9322125Y+5842520D01*
X-9353875Y+5842520D02*
X-9353875Y+5751080D01*
X-9385625Y+5751080D02*
X-9322125Y+5751080D01*
X-9274500Y+5751080D02*
X-9274500Y+5842520D01*
X-9179250Y+5751080D01*
X-9179250Y+5842520D01*
X-9147500Y+5766320D02*
X-9131625Y+5751080D01*
X-9068125Y+5751080D01*
X-9052250Y+5766320D01*
X-9052250Y+5781560D01*
X-9068125Y+5796800D01*
X-9131625Y+5796800D01*
X-9147500Y+5812040D01*
X-9147500Y+5827280D01*
X-9131625Y+5842520D01*
X-9068125Y+5842520D01*
X-9052250Y+5827280D01*
D70*
X-9511900Y+8940500D02*
X-9512031Y+8943658D01*
X-9513097Y+8949976D01*
X-9515328Y+8956294D01*
X-9518973Y+8962612D01*
X-9524548Y+8968851D01*
X-9530866Y+8973447D01*
X-9537184Y+8976380D01*
X-9543502Y+8978042D01*
X-9549820Y+8978600D01*
X-9550000Y+8978600D01*
X-9588100Y+8940500D02*
X-9587969Y+8943658D01*
X-9586903Y+8949976D01*
X-9584672Y+8956294D01*
X-9581027Y+8962612D01*
X-9575452Y+8968851D01*
X-9569134Y+8973447D01*
X-9562816Y+8976380D01*
X-9556498Y+8978042D01*
X-9550180Y+8978600D01*
X-9550000Y+8978600D01*
X-9588100Y+8940500D02*
X-9587969Y+8937342D01*
X-9586903Y+8931024D01*
X-9584672Y+8924706D01*
X-9581027Y+8918388D01*
X-9575452Y+8912149D01*
X-9569134Y+8907553D01*
X-9562816Y+8904620D01*
X-9556498Y+8902958D01*
X-9550180Y+8902400D01*
X-9550000Y+8902400D01*
X-9511900Y+8940500D02*
X-9512031Y+8937342D01*
X-9513097Y+8931024D01*
X-9515328Y+8924706D01*
X-9518973Y+8918388D01*
X-9524548Y+8912149D01*
X-9530866Y+8907553D01*
X-9537184Y+8904620D01*
X-9543502Y+8902958D01*
X-9549820Y+8902400D01*
X-9550000Y+8902400D01*
D71*
X-9400420Y+8850660D02*
X-9527593Y+8850660D01*
X-10299580Y+8850660D02*
X-10299580Y+8650000D01*
X-10175191Y+8650000D01*
X-9400420Y+8650000D02*
X-9400420Y+8850660D01*
X-10172407Y+8850660D02*
X-10299580Y+8850660D01*
X-10124809Y+8650000D02*
X-9975191Y+8650000D01*
X-9972407Y+8850660D02*
X-10127593Y+8850660D01*
X-9924809Y+8650000D02*
X-9775191Y+8650000D01*
X-9772407Y+8850660D02*
X-9927593Y+8850660D01*
X-9724809Y+8650000D02*
X-9575191Y+8650000D01*
X-9524809Y+8650000D02*
X-9400420Y+8650000D01*
X-9572407Y+8850660D02*
X-9727593Y+8850660D01*
D20*
X-10929500Y+9020460D02*
X-10929500Y+9111900D01*
X-10866000Y+9111900D01*
X-10834250Y+9081420D01*
X-10834250Y+9050940D01*
X-10866000Y+9020460D01*
X-10929500Y+9020460D01*
X-10786625Y+9111900D02*
X-10723125Y+9111900D01*
X-10754875Y+9111900D02*
X-10754875Y+9020460D01*
X-10786625Y+9020460D02*
X-10723125Y+9020460D01*
X-10675500Y+9035700D02*
X-10659625Y+9020460D01*
X-10596125Y+9020460D01*
X-10580250Y+9035700D01*
X-10580250Y+9050940D01*
X-10596125Y+9066180D01*
X-10659625Y+9066180D01*
X-10675500Y+9081420D01*
X-10675500Y+9096660D01*
X-10659625Y+9111900D01*
X-10596125Y+9111900D01*
X-10580250Y+9096660D01*
X-10548500Y+9020460D02*
X-10548500Y+9111900D01*
X-10469125Y+9111900D01*
X-10453250Y+9096660D01*
X-10453250Y+9081420D01*
X-10469125Y+9066180D01*
X-10548500Y+9066180D01*
X-10421500Y+9111900D02*
X-10421500Y+9020460D01*
X-10326250Y+9020460D01*
X-10294500Y+9020460D02*
X-10294500Y+9081420D01*
X-10262750Y+9111900D01*
X-10231000Y+9111900D01*
X-10199250Y+9081420D01*
X-10199250Y+9020460D01*
X-10294500Y+9050940D02*
X-10199250Y+9050940D01*
X-10072250Y+9111900D02*
X-10167500Y+9020460D01*
X-10167500Y+9111900D02*
X-10119875Y+9066180D01*
X-9818250Y+9035700D02*
X-9834125Y+9020460D01*
X-9881750Y+9020460D01*
X-9913500Y+9050940D01*
X-9913500Y+9081420D01*
X-9881750Y+9111900D01*
X-9834125Y+9111900D01*
X-9818250Y+9096660D01*
X-9786500Y+9081420D02*
X-9754750Y+9111900D01*
X-9723000Y+9111900D01*
X-9691250Y+9081420D01*
X-9691250Y+9050940D01*
X-9723000Y+9020460D01*
X-9754750Y+9020460D01*
X-9786500Y+9050940D01*
X-9786500Y+9081420D01*
X-9659500Y+9020460D02*
X-9659500Y+9111900D01*
X-9564250Y+9020460D01*
X-9564250Y+9111900D01*
X-9484875Y+9035700D02*
X-9469000Y+9035700D01*
X-9469000Y+9020460D01*
X-9484875Y+9020460D01*
X-9484875Y+9035700D01*
X-9278500Y+9020460D02*
X-9278500Y+9111900D01*
X-9199125Y+9111900D01*
X-9183250Y+9096660D01*
X-9183250Y+9081420D01*
X-9199125Y+9066180D01*
X-9278500Y+9066180D01*
X-9135625Y+9111900D02*
X-9072125Y+9111900D01*
X-9103875Y+9111900D02*
X-9103875Y+9020460D01*
X-9135625Y+9020460D02*
X-9072125Y+9020460D01*
X-9024500Y+9020460D02*
X-9024500Y+9111900D01*
X-8929250Y+9020460D01*
X-8929250Y+9111900D01*
X-8897500Y+9035700D02*
X-8881625Y+9020460D01*
X-8818125Y+9020460D01*
X-8802250Y+9035700D01*
X-8802250Y+9050940D01*
X-8818125Y+9066180D01*
X-8881625Y+9066180D01*
X-8897500Y+9081420D01*
X-8897500Y+9096660D01*
X-8881625Y+9111900D01*
X-8818125Y+9111900D01*
X-8802250Y+9096660D01*
M02*
