G04 PROTEUS GERBER X2 FILE*
%TF.GenerationSoftware,Labcenter,Proteus,8.12-SP0-Build30713*%
%TF.CreationDate,2021-06-08T09:13:02+00:00*%
%TF.FileFunction,Plated,1,2,PTH*%
%TF.FilePolarity,Positive*%
%TF.Part,Single*%
%TF.SameCoordinates,{86e273a1-3906-477b-930b-e3e2f8447d5b}*%
%FSLAX45Y45*%
%MOMM*%
G01*
%TA.AperFunction,ComponentDrill*%
%ADD50C,0.965200*%
%TA.AperFunction,ComponentDrill*%
%ADD51C,0.762000*%
%TA.AperFunction,ComponentDrill*%
%ADD52C,1.016000*%
%TA.AperFunction,ComponentDrill*%
%ADD53C,0.812800*%
%TD.AperFunction*%
D50*
X-13250000Y+10000000D03*
X-12996000Y+10000000D03*
D51*
X-13500000Y+9250000D03*
X-13500000Y+8742000D03*
X-12738000Y+9250000D03*
X-12738000Y+8742000D03*
X-13750000Y+8000000D03*
X-13496000Y+8000000D03*
D52*
X-13254000Y+7500000D03*
X-13000000Y+7500000D03*
X-12746000Y+7500000D03*
D51*
X-13000000Y+8250000D03*
X-11984000Y+8250000D03*
D50*
X-12250000Y+7500000D03*
X-12250000Y+7246000D03*
D51*
X-6250000Y+8250000D03*
X-6504000Y+8250000D03*
X-6758000Y+8250000D03*
X-7012000Y+8250000D03*
X-7266000Y+8250000D03*
X-7520000Y+8250000D03*
X-7774000Y+8250000D03*
X-8028000Y+8250000D03*
X-8282000Y+8250000D03*
X-8536000Y+8250000D03*
X-8790000Y+8250000D03*
X-9044000Y+8250000D03*
X-9298000Y+8250000D03*
X-9552000Y+8250000D03*
X-9806000Y+8250000D03*
X-10060000Y+8250000D03*
X-10314000Y+8250000D03*
X-10568000Y+8250000D03*
X-10822000Y+8250000D03*
X-11076000Y+8250000D03*
X-11076000Y+6726000D03*
X-10822000Y+6726000D03*
X-10568000Y+6726000D03*
X-10314000Y+6726000D03*
X-10060000Y+6726000D03*
X-9806000Y+6726000D03*
X-9552000Y+6726000D03*
X-9298000Y+6726000D03*
X-9044000Y+6726000D03*
X-8790000Y+6726000D03*
X-8536000Y+6726000D03*
X-8282000Y+6726000D03*
X-8028000Y+6726000D03*
X-7774000Y+6726000D03*
X-7520000Y+6726000D03*
X-7266000Y+6726000D03*
X-7012000Y+6726000D03*
X-6758000Y+6726000D03*
X-6504000Y+6726000D03*
X-6250000Y+6726000D03*
X-11500000Y+8877000D03*
X-11373000Y+8750000D03*
X-11500000Y+8623000D03*
D50*
X-11000000Y+10000000D03*
X-11000000Y+9746000D03*
D51*
X-11750000Y+9500000D03*
X-6000000Y+5750000D03*
X-6254000Y+5750000D03*
X-6508000Y+5750000D03*
X-6762000Y+5750000D03*
X-7016000Y+5750000D03*
X-7270000Y+5750000D03*
X-7524000Y+5750000D03*
X-7778000Y+5750000D03*
X-8032000Y+5750000D03*
X-8286000Y+5750000D03*
X-8286000Y+4988000D03*
X-8032000Y+4988000D03*
X-7778000Y+4988000D03*
X-7524000Y+4988000D03*
X-7270000Y+4988000D03*
X-7016000Y+4988000D03*
X-6762000Y+4988000D03*
X-6508000Y+4988000D03*
X-6254000Y+4988000D03*
X-6000000Y+4988000D03*
X-4750000Y+6000000D03*
X-4750000Y+6254000D03*
X-4750000Y+6508000D03*
X-4750000Y+6762000D03*
X-4750000Y+7016000D03*
X-4750000Y+7270000D03*
X-4750000Y+7524000D03*
X-4750000Y+7778000D03*
X-5512000Y+7778000D03*
X-5512000Y+7524000D03*
X-5512000Y+7270000D03*
X-5512000Y+7016000D03*
X-5512000Y+6762000D03*
X-5512000Y+6508000D03*
X-5512000Y+6254000D03*
X-5512000Y+6000000D03*
X-6500000Y+9500000D03*
X-6754000Y+9500000D03*
X-7008000Y+9500000D03*
X-7262000Y+9500000D03*
X-7516000Y+9500000D03*
X-7770000Y+9500000D03*
X-8024000Y+9500000D03*
X-8278000Y+9500000D03*
X-8278000Y+8738000D03*
X-8024000Y+8738000D03*
X-7770000Y+8738000D03*
X-7516000Y+8738000D03*
X-7262000Y+8738000D03*
X-7008000Y+8738000D03*
X-6754000Y+8738000D03*
X-6500000Y+8738000D03*
D50*
X-6000000Y+10250000D03*
X-5746000Y+10250000D03*
X-7250000Y+10250000D03*
X-6996000Y+10250000D03*
X-8500000Y+10250000D03*
X-8246000Y+10250000D03*
X-9750000Y+10250000D03*
X-9496000Y+10250000D03*
D51*
X-8750000Y+4750000D03*
X-8750000Y+5766000D03*
X-10000000Y+5250000D03*
X-10000000Y+4996000D03*
X-12250000Y+6000000D03*
X-12000000Y+5500000D03*
X-11750000Y+6000000D03*
X-6000000Y+9500000D03*
X-6000000Y+8484000D03*
X-6246000Y+4500000D03*
X-6500000Y+4500000D03*
X-6754000Y+4500000D03*
D53*
X-10550000Y+6000000D03*
X-10350000Y+6000000D03*
X-10150000Y+6000000D03*
X-9950000Y+6000000D03*
X-9750000Y+6000000D03*
X-9550000Y+6000000D03*
X-9350000Y+6000000D03*
X-9150000Y+6000000D03*
X-9550000Y+8750000D03*
X-9750000Y+8750000D03*
X-9950000Y+8750000D03*
X-10150000Y+8750000D03*
M02*
