G04 PROTEUS GERBER X2 FILE*
%TF.GenerationSoftware,Labcenter,Proteus,8.12-SP0-Build30713*%
%TF.CreationDate,2021-06-08T09:13:02+00:00*%
%TF.FileFunction,AssemblyDrawing,Top*%
%TF.FilePolarity,Positive*%
%TF.Part,Single*%
%TF.SameCoordinates,{86e273a1-3906-477b-930b-e3e2f8447d5b}*%
%FSLAX45Y45*%
%MOMM*%
G01*
%TA.AperFunction,Material*%
%ADD71C,0.152400*%
%ADD29C,0.609600*%
%ADD72C,0.054950*%
%TA.AperFunction,Profile*%
%ADD19C,0.203200*%
%TA.AperFunction,Material*%
%ADD20C,0.203200*%
%ADD73C,0.134190*%
%ADD30C,0.711200*%
%ADD31C,0.111760*%
%ADD32C,0.812800*%
%ADD33C,0.146050*%
%ADD34C,0.110230*%
%ADD35C,0.201500*%
%ADD70C,0.508000*%
%ADD36C,0.879510*%
%ADD37C,0.127000*%
%ADD38C,0.100750*%
%ADD39C,0.021160*%
%ADD40C,0.328180*%
%ADD41C,0.255610*%
%ADD42C,0.296540*%
%ADD43C,0.120900*%
%ADD44C,0.036280*%
%ADD45C,0.042330*%
%ADD46C,0.149220*%
%ADD47C,0.558800*%
%ADD48C,0.085560*%
%ADD49C,0.043190*%
%TD.AperFunction*%
D71*
X-13643700Y+10152400D02*
X-13643700Y+9847600D01*
X-12602300Y+9847600D01*
X-12602300Y+10152400D01*
X-13643700Y+10152400D01*
X-13643700Y+9847600D01*
X-12602300Y+9847600D01*
X-12602300Y+10152400D01*
X-13643700Y+10152400D01*
D29*
X-13250000Y+10000000D02*
X-13250000Y+10000000D01*
D72*
X-13179130Y+10016486D02*
X-13142035Y+10016486D01*
X-13160583Y+10016486D02*
X-13160583Y+9983513D01*
X-13129670Y+9983513D02*
X-13129670Y+10016486D01*
X-13098758Y+10016486D01*
X-13092575Y+10010991D01*
X-13092575Y+10005495D01*
X-13098758Y+10000000D01*
X-13129670Y+10000000D01*
X-13098758Y+10000000D02*
X-13092575Y+9994504D01*
X-13092575Y+9983513D01*
X-13080210Y+9983513D02*
X-13080210Y+10005495D01*
X-13067845Y+10016486D01*
X-13055480Y+10016486D01*
X-13043115Y+10005495D01*
X-13043115Y+9983513D01*
X-13080210Y+9994504D02*
X-13043115Y+9994504D01*
X-13030750Y+9983513D02*
X-13030750Y+10016486D01*
X-12993655Y+9983513D01*
X-12993655Y+10016486D01*
X-12981290Y+9989008D02*
X-12975108Y+9983513D01*
X-12950378Y+9983513D01*
X-12944195Y+9989008D01*
X-12944195Y+9994504D01*
X-12950378Y+10000000D01*
X-12975108Y+10000000D01*
X-12981290Y+10005495D01*
X-12981290Y+10010991D01*
X-12975108Y+10016486D01*
X-12950378Y+10016486D01*
X-12944195Y+10010991D01*
X-12931830Y+9983513D02*
X-12931830Y+10016486D01*
X-12894735Y+10016486D01*
X-12931830Y+10000000D02*
X-12907100Y+10000000D01*
X-12882370Y+10005495D02*
X-12870005Y+10016486D01*
X-12857640Y+10016486D01*
X-12845275Y+10005495D01*
X-12845275Y+9994504D01*
X-12857640Y+9983513D01*
X-12870005Y+9983513D01*
X-12882370Y+9994504D01*
X-12882370Y+10005495D01*
X-12832910Y+9983513D02*
X-12832910Y+10016486D01*
X-12801998Y+10016486D01*
X-12795815Y+10010991D01*
X-12795815Y+10005495D01*
X-12801998Y+10000000D01*
X-12832910Y+10000000D01*
X-12801998Y+10000000D02*
X-12795815Y+9994504D01*
X-12795815Y+9983513D01*
X-12783450Y+9983513D02*
X-12783450Y+10016486D01*
X-12764903Y+10000000D01*
X-12746355Y+10016486D01*
X-12746355Y+9983513D01*
X-12696895Y+9983513D02*
X-12733990Y+9983513D01*
X-12733990Y+10016486D01*
X-12696895Y+10016486D01*
X-12733990Y+10000000D02*
X-12709260Y+10000000D01*
X-12684530Y+9983513D02*
X-12684530Y+10016486D01*
X-12653618Y+10016486D01*
X-12647435Y+10010991D01*
X-12647435Y+10005495D01*
X-12653618Y+10000000D01*
X-12684530Y+10000000D01*
X-12653618Y+10000000D02*
X-12647435Y+9994504D01*
X-12647435Y+9983513D01*
D19*
X-14000000Y+3750000D02*
X-4250000Y+3750000D01*
X-4250000Y+10750000D01*
X-14000000Y+10750000D01*
X-14000000Y+3750000D01*
D20*
X-13563500Y+8604840D02*
X-12674500Y+8604840D01*
X-12674500Y+9387160D01*
X-13563500Y+9387160D01*
X-13563500Y+8604840D01*
D73*
X-13481328Y+8955741D02*
X-13481328Y+9036258D01*
X-13405843Y+9036258D01*
X-13390746Y+9022839D01*
X-13390746Y+9009419D01*
X-13405843Y+8996000D01*
X-13390746Y+8982580D01*
X-13390746Y+8969160D01*
X-13405843Y+8955741D01*
X-13481328Y+8955741D01*
X-13481328Y+8996000D02*
X-13405843Y+8996000D01*
X-13360552Y+8955741D02*
X-13360552Y+9036258D01*
X-13285067Y+9036258D01*
X-13269970Y+9022839D01*
X-13269970Y+9009419D01*
X-13285067Y+8996000D01*
X-13360552Y+8996000D01*
X-13285067Y+8996000D02*
X-13269970Y+8982580D01*
X-13269970Y+8955741D01*
X-13224679Y+9036258D02*
X-13164291Y+9036258D01*
X-13194485Y+9036258D02*
X-13194485Y+8955741D01*
X-13224679Y+8955741D02*
X-13164291Y+8955741D01*
X-13119000Y+8955741D02*
X-13119000Y+9036258D01*
X-13058612Y+9036258D01*
X-13028418Y+9009419D01*
X-13028418Y+8982580D01*
X-13058612Y+8955741D01*
X-13119000Y+8955741D01*
X-12937836Y+8982580D02*
X-12907642Y+8982580D01*
X-12907642Y+8955741D01*
X-12968030Y+8955741D01*
X-12998224Y+8982580D01*
X-12998224Y+9009419D01*
X-12968030Y+9036258D01*
X-12922739Y+9036258D01*
X-12907642Y+9022839D01*
X-12786866Y+8955741D02*
X-12877448Y+8955741D01*
X-12877448Y+9036258D01*
X-12786866Y+9036258D01*
X-12877448Y+8996000D02*
X-12817060Y+8996000D01*
D20*
X-13887160Y+7862840D02*
X-13358840Y+7862840D01*
X-13358840Y+8137160D01*
X-13887160Y+8137160D01*
X-13887160Y+7862840D01*
D30*
X-13750000Y+8000000D02*
X-13750000Y+8000000D01*
D31*
X-13561786Y+7977648D02*
X-13574359Y+7966472D01*
X-13612078Y+7966472D01*
X-13637224Y+7988824D01*
X-13637224Y+8011176D01*
X-13612078Y+8033528D01*
X-13574359Y+8033528D01*
X-13561786Y+8022352D01*
X-13524067Y+8022352D02*
X-13511494Y+8033528D01*
X-13473775Y+8033528D01*
X-13461202Y+8022352D01*
X-13461202Y+8011176D01*
X-13473775Y+8000000D01*
X-13511494Y+8000000D01*
X-13524067Y+7988824D01*
X-13524067Y+7966472D01*
X-13461202Y+7966472D01*
D20*
X-13391160Y+7362840D02*
X-12608840Y+7362840D01*
X-12608840Y+7764160D01*
X-13391160Y+7764160D01*
X-13391160Y+7362840D01*
D32*
X-13254000Y+7500000D02*
X-13254000Y+7500000D01*
D33*
X-13157560Y+7607315D02*
X-13075407Y+7607315D01*
X-13075407Y+7592710D01*
X-13157560Y+7519685D01*
X-13009684Y+7563500D02*
X-13026115Y+7578105D01*
X-13026115Y+7592710D01*
X-13009684Y+7607315D01*
X-12960392Y+7607315D01*
X-12943962Y+7592710D01*
X-12943962Y+7578105D01*
X-12960392Y+7563500D01*
X-13009684Y+7563500D01*
X-13026115Y+7548895D01*
X-13026115Y+7534290D01*
X-13009684Y+7519685D01*
X-12960392Y+7519685D01*
X-12943962Y+7534290D01*
X-12943962Y+7548895D01*
X-12960392Y+7563500D01*
X-12911100Y+7534290D02*
X-12911100Y+7592710D01*
X-12894670Y+7607315D01*
X-12828947Y+7607315D01*
X-12812517Y+7592710D01*
X-12812517Y+7534290D01*
X-12828947Y+7519685D01*
X-12894670Y+7519685D01*
X-12911100Y+7534290D01*
X-12911100Y+7519685D02*
X-12812517Y+7607315D01*
X-12681072Y+7607315D02*
X-12763225Y+7607315D01*
X-12763225Y+7578105D01*
X-12697502Y+7578105D01*
X-12681072Y+7563500D01*
X-12681072Y+7534290D01*
X-12697502Y+7519685D01*
X-12746794Y+7519685D01*
X-12763225Y+7534290D01*
D20*
X-13088900Y+8161100D02*
X-11895100Y+8161100D01*
X-11895100Y+8338900D01*
X-13088900Y+8338900D01*
X-13088900Y+8161100D01*
D30*
X-13000000Y+8250000D02*
X-13000000Y+8250000D01*
D34*
X-12528982Y+8216929D02*
X-12528982Y+8283070D01*
X-12466975Y+8283070D01*
X-12454573Y+8272047D01*
X-12454573Y+8261023D01*
X-12466975Y+8250000D01*
X-12528982Y+8250000D01*
X-12466975Y+8250000D02*
X-12454573Y+8238976D01*
X-12454573Y+8216929D01*
X-12417369Y+8272047D02*
X-12404967Y+8283070D01*
X-12367763Y+8283070D01*
X-12355361Y+8272047D01*
X-12355361Y+8261023D01*
X-12367763Y+8250000D01*
X-12404967Y+8250000D01*
X-12417369Y+8238976D01*
X-12417369Y+8216929D01*
X-12355361Y+8216929D01*
D71*
X-12097600Y+7893700D02*
X-12402400Y+7893700D01*
X-12402400Y+6852300D01*
X-12097600Y+6852300D01*
X-12097600Y+7893700D01*
X-12402400Y+7893700D01*
X-12402400Y+6852300D01*
X-12097600Y+6852300D01*
X-12097600Y+7893700D01*
D29*
X-12250000Y+7500000D02*
X-12250000Y+7500000D01*
D35*
X-12310451Y+6885068D02*
X-12189548Y+6885068D01*
X-12189548Y+7021084D01*
X-12189548Y+7202439D02*
X-12189548Y+7066423D01*
X-12310451Y+7066423D01*
X-12310451Y+7202439D01*
X-12250000Y+7066423D02*
X-12250000Y+7157100D01*
X-12189548Y+7247778D02*
X-12310451Y+7247778D01*
X-12310451Y+7338455D01*
X-12270150Y+7383794D01*
X-12229849Y+7383794D01*
X-12189548Y+7338455D01*
X-12189548Y+7247778D01*
D20*
X-11213160Y+6662500D02*
X-6112840Y+6662500D01*
X-6112840Y+8313500D01*
X-11213160Y+8313500D01*
X-11213160Y+6662500D01*
D70*
X-6250000Y+8250000D02*
X-6250000Y+8250000D01*
D36*
X-10129519Y+7488000D02*
X-10228465Y+7575952D01*
X-10228465Y+7663903D01*
X-10129519Y+7751855D01*
X-9832682Y+7751855D01*
X-9733737Y+7663903D01*
X-9733737Y+7575952D01*
X-9832682Y+7488000D01*
X-10129519Y+7488000D01*
X-10228465Y+7400048D01*
X-10228465Y+7312097D01*
X-10129519Y+7224145D01*
X-9832682Y+7224145D01*
X-9733737Y+7312097D01*
X-9733737Y+7400048D01*
X-9832682Y+7488000D01*
X-9535845Y+7312097D02*
X-9535845Y+7663903D01*
X-9436900Y+7751855D01*
X-9041117Y+7751855D01*
X-8942172Y+7663903D01*
X-8942172Y+7312097D01*
X-9041117Y+7224145D01*
X-9436900Y+7224145D01*
X-9535845Y+7312097D01*
X-9535845Y+7224145D02*
X-8942172Y+7751855D01*
X-8150607Y+7751855D02*
X-8645335Y+7751855D01*
X-8645335Y+7575952D01*
X-8249552Y+7575952D01*
X-8150607Y+7488000D01*
X-8150607Y+7312097D01*
X-8249552Y+7224145D01*
X-8546389Y+7224145D01*
X-8645335Y+7312097D01*
X-7754824Y+7575952D02*
X-7556933Y+7751855D01*
X-7556933Y+7224145D01*
D20*
X-11637160Y+8485840D02*
X-11235840Y+8485840D01*
X-11235840Y+9014160D01*
X-11637160Y+9014160D01*
X-11637160Y+8485840D01*
D29*
X-11500000Y+8877000D02*
X-11500000Y+8877000D01*
D37*
X-11550800Y+8678880D02*
X-11522225Y+8704280D01*
X-11493650Y+8704280D01*
X-11465075Y+8678880D01*
X-11465075Y+8653480D01*
X-11493650Y+8628080D01*
X-11522225Y+8628080D01*
X-11550800Y+8653480D01*
X-11550800Y+8678880D01*
X-11493650Y+8653480D02*
X-11465075Y+8628080D01*
X-11407925Y+8678880D02*
X-11379350Y+8704280D01*
X-11379350Y+8628080D01*
D71*
X-10847600Y+10393700D02*
X-11152400Y+10393700D01*
X-11152400Y+9352300D01*
X-10847600Y+9352300D01*
X-10847600Y+10393700D01*
X-11152400Y+10393700D01*
X-11152400Y+9352300D01*
X-10847600Y+9352300D01*
X-10847600Y+10393700D01*
D29*
X-11000000Y+10000000D02*
X-11000000Y+10000000D01*
D38*
X-10969774Y+9385069D02*
X-11030226Y+9385069D01*
X-11030226Y+9441742D01*
X-11020151Y+9453076D01*
X-11010075Y+9453076D01*
X-11000000Y+9441742D01*
X-10989925Y+9453076D01*
X-10979849Y+9453076D01*
X-10969774Y+9441742D01*
X-10969774Y+9385069D01*
X-11000000Y+9385069D02*
X-11000000Y+9441742D01*
X-11030226Y+9475746D02*
X-10979849Y+9475746D01*
X-10969774Y+9487080D01*
X-10969774Y+9532419D01*
X-10979849Y+9543753D01*
X-11030226Y+9543753D01*
X-11030226Y+9566423D02*
X-11030226Y+9634430D01*
X-10969774Y+9566423D01*
X-10969774Y+9634430D01*
X-11030226Y+9657100D02*
X-11030226Y+9725107D01*
X-10969774Y+9657100D01*
X-10969774Y+9725107D01*
X-10969774Y+9815784D02*
X-10969774Y+9747777D01*
X-11030226Y+9747777D01*
X-11030226Y+9815784D01*
X-11000000Y+9747777D02*
X-11000000Y+9793115D01*
X-10969774Y+9838454D02*
X-11030226Y+9838454D01*
X-11030226Y+9895127D01*
X-11020151Y+9906461D01*
X-11010075Y+9906461D01*
X-11000000Y+9895127D01*
X-11000000Y+9838454D01*
X-11000000Y+9895127D02*
X-10989925Y+9906461D01*
X-10969774Y+9906461D01*
D20*
X-11887160Y+9362840D02*
X-11612840Y+9362840D01*
X-11612840Y+9637160D01*
X-11887160Y+9637160D01*
X-11887160Y+9362840D01*
D39*
X-11743650Y+9385706D02*
X-11756349Y+9385706D01*
X-11756349Y+9397611D01*
X-11754233Y+9399992D01*
X-11752116Y+9399992D01*
X-11750000Y+9397611D01*
X-11747883Y+9399992D01*
X-11745766Y+9399992D01*
X-11743650Y+9397611D01*
X-11743650Y+9385706D01*
X-11750000Y+9385706D02*
X-11750000Y+9397611D01*
X-11756349Y+9404755D02*
X-11745766Y+9404755D01*
X-11743650Y+9407136D01*
X-11743650Y+9416660D01*
X-11745766Y+9419041D01*
X-11756349Y+9419041D01*
X-11756349Y+9423804D02*
X-11756349Y+9438090D01*
X-11743650Y+9423804D01*
X-11743650Y+9438090D01*
X-11756349Y+9442853D02*
X-11756349Y+9457139D01*
X-11743650Y+9442853D01*
X-11743650Y+9457139D01*
X-11743650Y+9476188D02*
X-11743650Y+9461902D01*
X-11756349Y+9461902D01*
X-11756349Y+9476188D01*
X-11750000Y+9461902D02*
X-11750000Y+9471426D01*
X-11743650Y+9480951D02*
X-11756349Y+9480951D01*
X-11756349Y+9492856D01*
X-11754233Y+9495237D01*
X-11752116Y+9495237D01*
X-11750000Y+9492856D01*
X-11750000Y+9480951D01*
X-11750000Y+9492856D02*
X-11747883Y+9495237D01*
X-11743650Y+9495237D01*
X-11756349Y+9521430D02*
X-11756349Y+9530954D01*
X-11756349Y+9526192D02*
X-11743650Y+9526192D01*
X-11743650Y+9521430D02*
X-11743650Y+9530954D01*
X-11743650Y+9538098D02*
X-11756349Y+9538098D01*
X-11743650Y+9552384D01*
X-11756349Y+9552384D01*
X-11743650Y+9557147D02*
X-11756349Y+9557147D01*
X-11756349Y+9569052D01*
X-11754233Y+9571433D01*
X-11752116Y+9571433D01*
X-11750000Y+9569052D01*
X-11750000Y+9557147D01*
X-11756349Y+9576196D02*
X-11745766Y+9576196D01*
X-11743650Y+9578577D01*
X-11743650Y+9588101D01*
X-11745766Y+9590482D01*
X-11756349Y+9590482D01*
X-11756349Y+9595245D02*
X-11756349Y+9609531D01*
X-11756349Y+9602388D02*
X-11743650Y+9602388D01*
D20*
X-8423160Y+4924500D02*
X-5862840Y+4924500D01*
X-5862840Y+5813500D01*
X-8423160Y+5813500D01*
X-8423160Y+4924500D01*
D70*
X-6000000Y+5750000D02*
X-6000000Y+5750000D01*
D40*
X-8258057Y+5270544D02*
X-8258057Y+5401818D01*
X-8184216Y+5467455D01*
X-8110375Y+5467455D01*
X-8036534Y+5401818D01*
X-8036534Y+5270544D01*
X-8258057Y+5336181D02*
X-8036534Y+5336181D01*
X-7962692Y+5270544D02*
X-7962692Y+5467455D01*
X-7815010Y+5467455D01*
X-7741169Y+5401818D01*
X-7741169Y+5336181D01*
X-7815010Y+5270544D01*
X-7962692Y+5270544D01*
X-7445804Y+5303363D02*
X-7482724Y+5270544D01*
X-7593486Y+5270544D01*
X-7667327Y+5336181D01*
X-7667327Y+5401818D01*
X-7593486Y+5467455D01*
X-7482724Y+5467455D01*
X-7445804Y+5434636D01*
X-7371962Y+5303363D02*
X-7371962Y+5434636D01*
X-7335042Y+5467455D01*
X-7187359Y+5467455D01*
X-7150439Y+5434636D01*
X-7150439Y+5303363D01*
X-7187359Y+5270544D01*
X-7335042Y+5270544D01*
X-7371962Y+5303363D01*
X-7371962Y+5270544D02*
X-7150439Y+5467455D01*
X-7002756Y+5369000D02*
X-7039677Y+5401818D01*
X-7039677Y+5434636D01*
X-7002756Y+5467455D01*
X-6891994Y+5467455D01*
X-6855074Y+5434636D01*
X-6855074Y+5401818D01*
X-6891994Y+5369000D01*
X-7002756Y+5369000D01*
X-7039677Y+5336181D01*
X-7039677Y+5303363D01*
X-7002756Y+5270544D01*
X-6891994Y+5270544D01*
X-6855074Y+5303363D01*
X-6855074Y+5336181D01*
X-6891994Y+5369000D01*
X-6781232Y+5303363D02*
X-6781232Y+5434636D01*
X-6744312Y+5467455D01*
X-6596629Y+5467455D01*
X-6559709Y+5434636D01*
X-6559709Y+5303363D01*
X-6596629Y+5270544D01*
X-6744312Y+5270544D01*
X-6781232Y+5303363D01*
X-6781232Y+5270544D02*
X-6559709Y+5467455D01*
X-6264344Y+5336181D02*
X-6485867Y+5336181D01*
X-6338185Y+5467455D01*
X-6338185Y+5270544D01*
D20*
X-5575500Y+5862840D02*
X-4686500Y+5862840D01*
X-4686500Y+7915160D01*
X-5575500Y+7915160D01*
X-5575500Y+5862840D01*
D70*
X-4750000Y+6000000D02*
X-4750000Y+6000000D01*
D41*
X-5054316Y+6165105D02*
X-5207683Y+6165105D01*
X-5207683Y+6308886D01*
X-5182122Y+6337642D01*
X-5156561Y+6337642D01*
X-5131000Y+6308886D01*
X-5131000Y+6165105D01*
X-5131000Y+6308886D02*
X-5105438Y+6337642D01*
X-5054316Y+6337642D01*
X-5054316Y+6567692D02*
X-5054316Y+6395155D01*
X-5207683Y+6395155D01*
X-5207683Y+6567692D01*
X-5131000Y+6395155D02*
X-5131000Y+6510180D01*
X-5079877Y+6625205D02*
X-5054316Y+6653961D01*
X-5054316Y+6768986D01*
X-5079877Y+6797742D01*
X-5105438Y+6797742D01*
X-5131000Y+6768986D01*
X-5131000Y+6653961D01*
X-5156561Y+6625205D01*
X-5182122Y+6625205D01*
X-5207683Y+6653961D01*
X-5207683Y+6768986D01*
X-5182122Y+6797742D01*
X-5054316Y+7085305D02*
X-5156561Y+7085305D01*
X-5207683Y+7142817D01*
X-5207683Y+7200330D01*
X-5156561Y+7257842D01*
X-5054316Y+7257842D01*
X-5105438Y+7085305D02*
X-5105438Y+7257842D01*
X-5054316Y+7315355D02*
X-5207683Y+7315355D01*
X-5207683Y+7430380D01*
X-5156561Y+7487892D01*
X-5105438Y+7487892D01*
X-5054316Y+7430380D01*
X-5054316Y+7315355D01*
X-5079877Y+7717942D02*
X-5054316Y+7689186D01*
X-5054316Y+7602917D01*
X-5105438Y+7545405D01*
X-5156561Y+7545405D01*
X-5207683Y+7602917D01*
X-5207683Y+7689186D01*
X-5182122Y+7717942D01*
D20*
X-8415160Y+8674500D02*
X-6362840Y+8674500D01*
X-6362840Y+9563500D01*
X-8415160Y+9563500D01*
X-8415160Y+8674500D01*
D70*
X-6500000Y+9500000D02*
X-6500000Y+9500000D01*
D42*
X-8270950Y+9030037D02*
X-8270950Y+9207964D01*
X-8104144Y+9207964D01*
X-8070783Y+9178309D01*
X-8070783Y+9148655D01*
X-8104144Y+9119000D01*
X-8270950Y+9119000D01*
X-8104144Y+9119000D02*
X-8070783Y+9089346D01*
X-8070783Y+9030037D01*
X-7803893Y+9030037D02*
X-8004060Y+9030037D01*
X-8004060Y+9207964D01*
X-7803893Y+9207964D01*
X-8004060Y+9119000D02*
X-7870615Y+9119000D01*
X-7737170Y+9059691D02*
X-7703809Y+9030037D01*
X-7570364Y+9030037D01*
X-7537003Y+9059691D01*
X-7537003Y+9089346D01*
X-7570364Y+9119000D01*
X-7703809Y+9119000D01*
X-7737170Y+9148655D01*
X-7737170Y+9178309D01*
X-7703809Y+9207964D01*
X-7570364Y+9207964D01*
X-7537003Y+9178309D01*
X-7203390Y+9059691D02*
X-7170029Y+9030037D01*
X-7036584Y+9030037D01*
X-7003223Y+9059691D01*
X-7003223Y+9089346D01*
X-7036584Y+9119000D01*
X-7170029Y+9119000D01*
X-7203390Y+9148655D01*
X-7203390Y+9178309D01*
X-7170029Y+9207964D01*
X-7036584Y+9207964D01*
X-7003223Y+9178309D01*
X-6936500Y+9207964D02*
X-6936500Y+9030037D01*
X-6836417Y+9119000D01*
X-6736333Y+9030037D01*
X-6736333Y+9207964D01*
D71*
X-6393700Y+10402400D02*
X-6393700Y+10097600D01*
X-5352300Y+10097600D01*
X-5352300Y+10402400D01*
X-6393700Y+10402400D01*
X-6393700Y+10097600D01*
X-5352300Y+10097600D01*
X-5352300Y+10402400D01*
X-6393700Y+10402400D01*
D29*
X-6000000Y+10250000D02*
X-6000000Y+10250000D01*
D35*
X-5929132Y+10209698D02*
X-5906463Y+10189548D01*
X-5815786Y+10189548D01*
X-5793116Y+10209698D01*
X-5793116Y+10229849D01*
X-5815786Y+10250000D01*
X-5906463Y+10250000D01*
X-5929132Y+10270150D01*
X-5929132Y+10290301D01*
X-5906463Y+10310451D01*
X-5815786Y+10310451D01*
X-5793116Y+10290301D01*
X-5611761Y+10189548D02*
X-5747777Y+10189548D01*
X-5747777Y+10310451D01*
X-5611761Y+10310451D01*
X-5747777Y+10250000D02*
X-5657100Y+10250000D01*
X-5566422Y+10310451D02*
X-5430406Y+10310451D01*
X-5498414Y+10310451D02*
X-5498414Y+10189548D01*
D71*
X-7643700Y+10402400D02*
X-7643700Y+10097600D01*
X-6602300Y+10097600D01*
X-6602300Y+10402400D01*
X-7643700Y+10402400D01*
X-7643700Y+10097600D01*
X-6602300Y+10097600D01*
X-6602300Y+10402400D01*
X-7643700Y+10402400D01*
D29*
X-7250000Y+10250000D02*
X-7250000Y+10250000D01*
D35*
X-7156463Y+10310451D02*
X-7065786Y+10310451D01*
X-7111124Y+10310451D02*
X-7111124Y+10189548D01*
X-7156463Y+10189548D02*
X-7065786Y+10189548D01*
X-6997777Y+10189548D02*
X-6997777Y+10310451D01*
X-6861761Y+10189548D01*
X-6861761Y+10310451D01*
X-6680406Y+10209698D02*
X-6703076Y+10189548D01*
X-6771084Y+10189548D01*
X-6816422Y+10229849D01*
X-6816422Y+10270150D01*
X-6771084Y+10310451D01*
X-6703076Y+10310451D01*
X-6680406Y+10290301D01*
D71*
X-8893700Y+10402400D02*
X-8893700Y+10097600D01*
X-7852300Y+10097600D01*
X-7852300Y+10402400D01*
X-8893700Y+10402400D01*
X-8893700Y+10097600D01*
X-7852300Y+10097600D01*
X-7852300Y+10402400D01*
X-8893700Y+10402400D01*
D29*
X-8500000Y+10250000D02*
X-8500000Y+10250000D01*
D35*
X-8429132Y+10189548D02*
X-8429132Y+10310451D01*
X-8338455Y+10310451D01*
X-8293116Y+10270150D01*
X-8293116Y+10229849D01*
X-8338455Y+10189548D01*
X-8429132Y+10189548D01*
X-8111761Y+10189548D02*
X-8247777Y+10189548D01*
X-8247777Y+10310451D01*
X-8111761Y+10310451D01*
X-8247777Y+10250000D02*
X-8157100Y+10250000D01*
X-7930406Y+10209698D02*
X-7953076Y+10189548D01*
X-8021084Y+10189548D01*
X-8066422Y+10229849D01*
X-8066422Y+10270150D01*
X-8021084Y+10310451D01*
X-7953076Y+10310451D01*
X-7930406Y+10290301D01*
D71*
X-10143700Y+10402400D02*
X-10143700Y+10097600D01*
X-9102300Y+10097600D01*
X-9102300Y+10402400D01*
X-10143700Y+10402400D01*
X-10143700Y+10097600D01*
X-9102300Y+10097600D01*
X-9102300Y+10402400D01*
X-10143700Y+10402400D01*
D29*
X-9750000Y+10250000D02*
X-9750000Y+10250000D01*
D43*
X-9679132Y+10213728D02*
X-9679132Y+10286271D01*
X-9611124Y+10286271D01*
X-9597523Y+10274180D01*
X-9597523Y+10262090D01*
X-9611124Y+10250000D01*
X-9679132Y+10250000D01*
X-9611124Y+10250000D02*
X-9597523Y+10237909D01*
X-9597523Y+10213728D01*
X-9488710Y+10213728D02*
X-9570319Y+10213728D01*
X-9570319Y+10286271D01*
X-9488710Y+10286271D01*
X-9570319Y+10250000D02*
X-9515913Y+10250000D01*
X-9461506Y+10225819D02*
X-9447905Y+10213728D01*
X-9393498Y+10213728D01*
X-9379897Y+10225819D01*
X-9379897Y+10237909D01*
X-9393498Y+10250000D01*
X-9447905Y+10250000D01*
X-9461506Y+10262090D01*
X-9461506Y+10274180D01*
X-9447905Y+10286271D01*
X-9393498Y+10286271D01*
X-9379897Y+10274180D01*
X-9271084Y+10213728D02*
X-9352693Y+10213728D01*
X-9352693Y+10286271D01*
X-9271084Y+10286271D01*
X-9352693Y+10250000D02*
X-9298287Y+10250000D01*
X-9243880Y+10286271D02*
X-9162271Y+10286271D01*
X-9203076Y+10286271D02*
X-9203076Y+10213728D01*
D20*
X-8838900Y+4661100D02*
X-8661100Y+4661100D01*
X-8661100Y+5854900D01*
X-8838900Y+5854900D01*
X-8838900Y+4661100D01*
D30*
X-8750000Y+4750000D02*
X-8750000Y+4750000D01*
D34*
X-8716929Y+5221018D02*
X-8783070Y+5221018D01*
X-8783070Y+5283025D01*
X-8772047Y+5295427D01*
X-8761023Y+5295427D01*
X-8750000Y+5283025D01*
X-8750000Y+5221018D01*
X-8750000Y+5283025D02*
X-8738976Y+5295427D01*
X-8716929Y+5295427D01*
X-8761023Y+5345033D02*
X-8783070Y+5369836D01*
X-8716929Y+5369836D01*
D20*
X-10137160Y+4858840D02*
X-9862840Y+4858840D01*
X-9862840Y+5387160D01*
X-10137160Y+5387160D01*
X-10137160Y+4858840D01*
D30*
X-10000000Y+5250000D02*
X-10000000Y+5250000D01*
D31*
X-9977648Y+5011494D02*
X-9966472Y+4998921D01*
X-9966472Y+4961202D01*
X-9988824Y+4936056D01*
X-10011176Y+4936056D01*
X-10033528Y+4961202D01*
X-10033528Y+4998921D01*
X-10022352Y+5011494D01*
X-10011176Y+5061786D02*
X-10033528Y+5086932D01*
X-9966472Y+5086932D01*
D20*
X-12387160Y+5862840D02*
X-12112840Y+5862840D01*
X-12112840Y+6137160D01*
X-12387160Y+6137160D01*
X-12387160Y+5862840D01*
D44*
X-12364296Y+5989115D02*
X-12364296Y+6010886D01*
X-12343886Y+6010886D01*
X-12339804Y+6007257D01*
X-12339804Y+6003629D01*
X-12343886Y+6000000D01*
X-12364296Y+6000000D01*
X-12331640Y+6003629D02*
X-12323476Y+6010886D01*
X-12315312Y+6010886D01*
X-12307148Y+6003629D01*
X-12307148Y+5996372D01*
X-12315312Y+5989115D01*
X-12323476Y+5989115D01*
X-12331640Y+5996372D01*
X-12331640Y+6003629D01*
X-12298984Y+6010886D02*
X-12274492Y+6010886D01*
X-12286738Y+6010886D02*
X-12286738Y+5989115D01*
X-12217344Y+5996372D02*
X-12209180Y+5996372D01*
X-12209180Y+5989115D01*
X-12225508Y+5989115D01*
X-12233672Y+5996372D01*
X-12233672Y+6003629D01*
X-12225508Y+6010886D01*
X-12213262Y+6010886D01*
X-12209180Y+6007257D01*
X-12201016Y+5989115D02*
X-12201016Y+6010886D01*
X-12176524Y+5989115D01*
X-12176524Y+6010886D01*
X-12168360Y+5989115D02*
X-12168360Y+6010886D01*
X-12152032Y+6010886D01*
X-12143868Y+6003629D01*
X-12143868Y+5996372D01*
X-12152032Y+5989115D01*
X-12168360Y+5989115D01*
D20*
X-12137160Y+5362840D02*
X-11862840Y+5362840D01*
X-11862840Y+5637160D01*
X-12137160Y+5637160D01*
X-12137160Y+5362840D01*
D44*
X-12114296Y+5489115D02*
X-12114296Y+5510886D01*
X-12093886Y+5510886D01*
X-12089804Y+5507257D01*
X-12089804Y+5503629D01*
X-12093886Y+5500000D01*
X-12114296Y+5500000D01*
X-12081640Y+5503629D02*
X-12073476Y+5510886D01*
X-12065312Y+5510886D01*
X-12057148Y+5503629D01*
X-12057148Y+5496372D01*
X-12065312Y+5489115D01*
X-12073476Y+5489115D01*
X-12081640Y+5496372D01*
X-12081640Y+5503629D01*
X-12048984Y+5510886D02*
X-12024492Y+5510886D01*
X-12036738Y+5510886D02*
X-12036738Y+5489115D01*
X-11983672Y+5510886D02*
X-11983672Y+5500000D01*
X-11971426Y+5489115D01*
X-11959180Y+5500000D01*
X-11959180Y+5510886D01*
X-11951016Y+5489115D02*
X-11951016Y+5503629D01*
X-11942852Y+5510886D01*
X-11934688Y+5510886D01*
X-11926524Y+5503629D01*
X-11926524Y+5489115D01*
X-11951016Y+5496372D02*
X-11926524Y+5496372D01*
X-11918360Y+5489115D02*
X-11918360Y+5510886D01*
X-11897950Y+5510886D01*
X-11893868Y+5507257D01*
X-11893868Y+5503629D01*
X-11897950Y+5500000D01*
X-11918360Y+5500000D01*
X-11897950Y+5500000D02*
X-11893868Y+5496372D01*
X-11893868Y+5489115D01*
D20*
X-11887160Y+5862840D02*
X-11612840Y+5862840D01*
X-11612840Y+6137160D01*
X-11887160Y+6137160D01*
X-11887160Y+5862840D01*
D45*
X-11864297Y+5987300D02*
X-11864297Y+6012700D01*
X-11840486Y+6012700D01*
X-11835723Y+6008467D01*
X-11835723Y+6004233D01*
X-11840486Y+6000000D01*
X-11864297Y+6000000D01*
X-11826198Y+6004233D02*
X-11816674Y+6012700D01*
X-11807149Y+6012700D01*
X-11797624Y+6004233D01*
X-11797624Y+5995767D01*
X-11807149Y+5987300D01*
X-11816674Y+5987300D01*
X-11826198Y+5995767D01*
X-11826198Y+6004233D01*
X-11788099Y+6012700D02*
X-11759525Y+6012700D01*
X-11773812Y+6012700D02*
X-11773812Y+5987300D01*
X-11707139Y+6012700D02*
X-11688090Y+6012700D01*
X-11697614Y+6012700D02*
X-11697614Y+5987300D01*
X-11707139Y+5987300D02*
X-11688090Y+5987300D01*
X-11673802Y+5987300D02*
X-11673802Y+6012700D01*
X-11645228Y+5987300D01*
X-11645228Y+6012700D01*
D20*
X-6088900Y+8395100D02*
X-5911100Y+8395100D01*
X-5911100Y+9588900D01*
X-6088900Y+9588900D01*
X-6088900Y+8395100D01*
D30*
X-6000000Y+9500000D02*
X-6000000Y+9500000D01*
D34*
X-5966929Y+8830558D02*
X-6033070Y+8830558D01*
X-6033070Y+8892565D01*
X-6022047Y+8904967D01*
X-6011023Y+8904967D01*
X-6000000Y+8892565D01*
X-6000000Y+8830558D01*
X-6000000Y+8892565D02*
X-5988976Y+8904967D01*
X-5966929Y+8904967D01*
X-6033070Y+8942171D02*
X-6033070Y+9004179D01*
X-6022047Y+9004179D01*
X-5966929Y+8942171D01*
D20*
X-6916560Y+4083440D02*
X-6083440Y+4083440D01*
X-6083440Y+4649860D01*
X-6916560Y+4649860D01*
X-6916560Y+4083440D01*
D32*
X-6246000Y+4500000D02*
X-6246000Y+4500000D01*
D46*
X-6870204Y+4411418D02*
X-6870204Y+4321883D01*
X-6769478Y+4321883D01*
X-6735902Y+4321883D02*
X-6735902Y+4411418D01*
X-6685539Y+4366650D01*
X-6635176Y+4411418D01*
X-6635176Y+4321883D01*
X-6584813Y+4396495D02*
X-6568025Y+4411418D01*
X-6517662Y+4411418D01*
X-6500874Y+4396495D01*
X-6500874Y+4381573D01*
X-6517662Y+4366650D01*
X-6500874Y+4351728D01*
X-6500874Y+4336805D01*
X-6517662Y+4321883D01*
X-6568025Y+4321883D01*
X-6584813Y+4336805D01*
X-6551237Y+4366650D02*
X-6517662Y+4366650D01*
X-6366572Y+4411418D02*
X-6450511Y+4411418D01*
X-6450511Y+4381573D01*
X-6383360Y+4381573D01*
X-6366572Y+4366650D01*
X-6366572Y+4336805D01*
X-6383360Y+4321883D01*
X-6433723Y+4321883D01*
X-6450511Y+4336805D01*
D71*
X-9054750Y+5855220D02*
X-9054750Y+6144780D01*
X-10645250Y+6144780D01*
X-10645250Y+5855220D01*
X-9054750Y+5855220D01*
X-9054750Y+6144780D01*
X-10645250Y+6144780D01*
X-10645250Y+5855220D01*
X-9054750Y+5855220D01*
D47*
X-10550000Y+6000000D02*
X-10550000Y+6000000D01*
D48*
X-10439163Y+5974331D02*
X-10439163Y+6025670D01*
X-10400659Y+6025670D01*
X-10381407Y+6008557D01*
X-10381407Y+5991444D01*
X-10400659Y+5974331D01*
X-10439163Y+5974331D01*
X-10352529Y+6025670D02*
X-10314025Y+6025670D01*
X-10333277Y+6025670D02*
X-10333277Y+5974331D01*
X-10352529Y+5974331D02*
X-10314025Y+5974331D01*
X-10285147Y+5982887D02*
X-10275521Y+5974331D01*
X-10237017Y+5974331D01*
X-10227391Y+5982887D01*
X-10227391Y+5991444D01*
X-10237017Y+6000000D01*
X-10275521Y+6000000D01*
X-10285147Y+6008557D01*
X-10285147Y+6017113D01*
X-10275521Y+6025670D01*
X-10237017Y+6025670D01*
X-10227391Y+6017113D01*
X-10208139Y+5974331D02*
X-10208139Y+6025670D01*
X-10160009Y+6025670D01*
X-10150383Y+6017113D01*
X-10150383Y+6008557D01*
X-10160009Y+6000000D01*
X-10208139Y+6000000D01*
X-10131131Y+6025670D02*
X-10131131Y+5974331D01*
X-10073375Y+5974331D01*
X-10054123Y+5974331D02*
X-10054123Y+6008557D01*
X-10034871Y+6025670D01*
X-10015619Y+6025670D01*
X-9996367Y+6008557D01*
X-9996367Y+5974331D01*
X-10054123Y+5991444D02*
X-9996367Y+5991444D01*
X-9919359Y+6025670D02*
X-9977115Y+5974331D01*
X-9977115Y+6025670D02*
X-9948237Y+6000000D01*
X-9823099Y+5974331D02*
X-9823099Y+6025670D01*
X-9784595Y+6025670D01*
X-9765343Y+6008557D01*
X-9765343Y+5991444D01*
X-9784595Y+5974331D01*
X-9823099Y+5974331D01*
X-9746091Y+5974331D02*
X-9746091Y+6008557D01*
X-9726839Y+6025670D01*
X-9707587Y+6025670D01*
X-9688335Y+6008557D01*
X-9688335Y+5974331D01*
X-9746091Y+5991444D02*
X-9688335Y+5991444D01*
X-9669083Y+6025670D02*
X-9611327Y+6025670D01*
X-9640205Y+6025670D02*
X-9640205Y+5974331D01*
X-9592075Y+5974331D02*
X-9592075Y+6008557D01*
X-9572823Y+6025670D01*
X-9553571Y+6025670D01*
X-9534319Y+6008557D01*
X-9534319Y+5974331D01*
X-9592075Y+5991444D02*
X-9534319Y+5991444D01*
X-9438059Y+5974331D02*
X-9438059Y+6025670D01*
X-9389929Y+6025670D01*
X-9380303Y+6017113D01*
X-9380303Y+6008557D01*
X-9389929Y+6000000D01*
X-9438059Y+6000000D01*
X-9351425Y+6025670D02*
X-9312921Y+6025670D01*
X-9332173Y+6025670D02*
X-9332173Y+5974331D01*
X-9351425Y+5974331D02*
X-9312921Y+5974331D01*
X-9284043Y+5974331D02*
X-9284043Y+6025670D01*
X-9226287Y+5974331D01*
X-9226287Y+6025670D01*
X-9207035Y+5982887D02*
X-9197409Y+5974331D01*
X-9158905Y+5974331D01*
X-9149279Y+5982887D01*
X-9149279Y+5991444D01*
X-9158905Y+6000000D01*
X-9197409Y+6000000D01*
X-9207035Y+6008557D01*
X-9207035Y+6017113D01*
X-9197409Y+6025670D01*
X-9158905Y+6025670D01*
X-9149279Y+6017113D01*
D71*
X-9375020Y+8624600D02*
X-9375020Y+8876060D01*
X-10324980Y+8876060D01*
X-10324980Y+8624600D01*
X-9375020Y+8624600D01*
X-9375020Y+8876060D01*
X-10324980Y+8876060D01*
X-10324980Y+8624600D01*
X-9375020Y+8624600D01*
D47*
X-9550000Y+8750000D02*
X-9550000Y+8750000D01*
D49*
X-10285716Y+8737371D02*
X-10285716Y+8763288D01*
X-10266278Y+8763288D01*
X-10256559Y+8754649D01*
X-10256559Y+8746010D01*
X-10266278Y+8737371D01*
X-10285716Y+8737371D01*
X-10241981Y+8763288D02*
X-10222543Y+8763288D01*
X-10232262Y+8763288D02*
X-10232262Y+8737371D01*
X-10241981Y+8737371D02*
X-10222543Y+8737371D01*
X-10207964Y+8741690D02*
X-10203105Y+8737371D01*
X-10183667Y+8737371D01*
X-10178807Y+8741690D01*
X-10178807Y+8746010D01*
X-10183667Y+8750330D01*
X-10203105Y+8750330D01*
X-10207964Y+8754649D01*
X-10207964Y+8758969D01*
X-10203105Y+8763288D01*
X-10183667Y+8763288D01*
X-10178807Y+8758969D01*
X-10169088Y+8737371D02*
X-10169088Y+8763288D01*
X-10144791Y+8763288D01*
X-10139931Y+8758969D01*
X-10139931Y+8754649D01*
X-10144791Y+8750330D01*
X-10169088Y+8750330D01*
X-10130212Y+8763288D02*
X-10130212Y+8737371D01*
X-10101055Y+8737371D01*
X-10091336Y+8737371D02*
X-10091336Y+8754649D01*
X-10081617Y+8763288D01*
X-10071898Y+8763288D01*
X-10062179Y+8754649D01*
X-10062179Y+8737371D01*
X-10091336Y+8746010D02*
X-10062179Y+8746010D01*
X-10023303Y+8763288D02*
X-10052460Y+8737371D01*
X-10052460Y+8763288D02*
X-10037882Y+8750330D01*
X-9945551Y+8741690D02*
X-9950411Y+8737371D01*
X-9964989Y+8737371D01*
X-9974708Y+8746010D01*
X-9974708Y+8754649D01*
X-9964989Y+8763288D01*
X-9950411Y+8763288D01*
X-9945551Y+8758969D01*
X-9935832Y+8754649D02*
X-9926113Y+8763288D01*
X-9916394Y+8763288D01*
X-9906675Y+8754649D01*
X-9906675Y+8746010D01*
X-9916394Y+8737371D01*
X-9926113Y+8737371D01*
X-9935832Y+8746010D01*
X-9935832Y+8754649D01*
X-9896956Y+8737371D02*
X-9896956Y+8763288D01*
X-9867799Y+8737371D01*
X-9867799Y+8763288D01*
X-9843502Y+8741690D02*
X-9838642Y+8741690D01*
X-9838642Y+8737371D01*
X-9843502Y+8737371D01*
X-9843502Y+8741690D01*
X-9780328Y+8737371D02*
X-9780328Y+8763288D01*
X-9756031Y+8763288D01*
X-9751171Y+8758969D01*
X-9751171Y+8754649D01*
X-9756031Y+8750330D01*
X-9780328Y+8750330D01*
X-9736593Y+8763288D02*
X-9717155Y+8763288D01*
X-9726874Y+8763288D02*
X-9726874Y+8737371D01*
X-9736593Y+8737371D02*
X-9717155Y+8737371D01*
X-9702576Y+8737371D02*
X-9702576Y+8763288D01*
X-9673419Y+8737371D01*
X-9673419Y+8763288D01*
X-9663700Y+8741690D02*
X-9658841Y+8737371D01*
X-9639403Y+8737371D01*
X-9634543Y+8741690D01*
X-9634543Y+8746010D01*
X-9639403Y+8750330D01*
X-9658841Y+8750330D01*
X-9663700Y+8754649D01*
X-9663700Y+8758969D01*
X-9658841Y+8763288D01*
X-9639403Y+8763288D01*
X-9634543Y+8758969D01*
M02*
