G04 PROTEUS GERBER X2 FILE*
%TF.GenerationSoftware,Labcenter,Proteus,8.12-SP0-Build30713*%
%TF.CreationDate,2021-06-08T09:13:02+00:00*%
%TF.FileFunction,Soldermask,Top*%
%TF.FilePolarity,Negative*%
%TF.Part,Single*%
%TF.SameCoordinates,{86e273a1-3906-477b-930b-e3e2f8447d5b}*%
%FSLAX45Y45*%
%MOMM*%
G01*
%TA.AperFunction,Material*%
%ADD21C,1.778000*%
%AMPPAD014*
4,1,36,
0.762000,0.635000,
0.762000,-0.635000,
0.759470,-0.660970,
0.752200,-0.684980,
0.740650,-0.706580,
0.725290,-0.725290,
0.706570,-0.740650,
0.684980,-0.752200,
0.660970,-0.759470,
0.635000,-0.762000,
-0.635000,-0.762000,
-0.660970,-0.759470,
-0.684980,-0.752200,
-0.706570,-0.740650,
-0.725290,-0.725290,
-0.740650,-0.706580,
-0.752200,-0.684980,
-0.759470,-0.660970,
-0.762000,-0.635000,
-0.762000,0.635000,
-0.759470,0.660970,
-0.752200,0.684980,
-0.740650,0.706580,
-0.725290,0.725290,
-0.706570,0.740650,
-0.684980,0.752200,
-0.660970,0.759470,
-0.635000,0.762000,
0.635000,0.762000,
0.660970,0.759470,
0.684980,0.752200,
0.706570,0.740650,
0.725290,0.725290,
0.740650,0.706580,
0.752200,0.684980,
0.759470,0.660970,
0.762000,0.635000,
0*%
%TA.AperFunction,Material*%
%ADD22PPAD014*%
%ADD23C,1.524000*%
%TA.AperFunction,Material*%
%ADD24C,2.032000*%
%AMPPAD017*
4,1,36,
-1.016000,1.143000,
1.016000,1.143000,
1.041970,1.140470,
1.065980,1.133200,
1.087580,1.121650,
1.106290,1.106290,
1.121650,1.087570,
1.133200,1.065980,
1.140470,1.041970,
1.143000,1.016000,
1.143000,-1.016000,
1.140470,-1.041970,
1.133200,-1.065980,
1.121650,-1.087570,
1.106290,-1.106290,
1.087580,-1.121650,
1.065980,-1.133200,
1.041970,-1.140470,
1.016000,-1.143000,
-1.016000,-1.143000,
-1.041970,-1.140470,
-1.065980,-1.133200,
-1.087580,-1.121650,
-1.106290,-1.106290,
-1.121650,-1.087570,
-1.133200,-1.065980,
-1.140470,-1.041970,
-1.143000,-1.016000,
-1.143000,1.016000,
-1.140470,1.041970,
-1.133200,1.065980,
-1.121650,1.087570,
-1.106290,1.106290,
-1.087580,1.121650,
-1.065980,1.133200,
-1.041970,1.140470,
-1.016000,1.143000,
0*%
%TA.AperFunction,Material*%
%ADD25PPAD017*%
%AMPPAD018*
4,1,36,
0.635000,-0.762000,
-0.635000,-0.762000,
-0.660970,-0.759470,
-0.684980,-0.752200,
-0.706580,-0.740650,
-0.725290,-0.725290,
-0.740650,-0.706570,
-0.752200,-0.684980,
-0.759470,-0.660970,
-0.762000,-0.635000,
-0.762000,0.635000,
-0.759470,0.660970,
-0.752200,0.684980,
-0.740650,0.706570,
-0.725290,0.725290,
-0.706580,0.740650,
-0.684980,0.752200,
-0.660970,0.759470,
-0.635000,0.762000,
0.635000,0.762000,
0.660970,0.759470,
0.684980,0.752200,
0.706580,0.740650,
0.725290,0.725290,
0.740650,0.706570,
0.752200,0.684980,
0.759470,0.660970,
0.762000,0.635000,
0.762000,-0.635000,
0.759470,-0.660970,
0.752200,-0.684980,
0.740650,-0.706570,
0.725290,-0.725290,
0.706580,-0.740650,
0.684980,-0.752200,
0.660970,-0.759470,
0.635000,-0.762000,
0*%
%TA.AperFunction,Material*%
%ADD26PPAD018*%
%TA.AperFunction,Material*%
%ADD27C,2.286000*%
%TA.AperFunction,Material*%
%ADD28C,1.651000*%
%TA.AperFunction,Profile*%
%ADD19C,0.203200*%
%TD.AperFunction*%
D21*
X-13250000Y+10000000D03*
X-12996000Y+10000000D03*
D22*
X-13500000Y+9250000D03*
D23*
X-13500000Y+8742000D03*
X-12738000Y+9250000D03*
X-12738000Y+8742000D03*
D24*
X-13750000Y+8000000D03*
X-13496000Y+8000000D03*
D25*
X-13254000Y+7500000D03*
X-13000000Y+7500000D03*
X-12746000Y+7500000D03*
D24*
X-13000000Y+8250000D03*
X-11984000Y+8250000D03*
D21*
X-12250000Y+7500000D03*
X-12250000Y+7246000D03*
D26*
X-6250000Y+8250000D03*
D23*
X-6504000Y+8250000D03*
X-6758000Y+8250000D03*
X-7012000Y+8250000D03*
X-7266000Y+8250000D03*
X-7520000Y+8250000D03*
X-7774000Y+8250000D03*
X-8028000Y+8250000D03*
X-8282000Y+8250000D03*
X-8536000Y+8250000D03*
X-8790000Y+8250000D03*
X-9044000Y+8250000D03*
X-9298000Y+8250000D03*
X-9552000Y+8250000D03*
X-9806000Y+8250000D03*
X-10060000Y+8250000D03*
X-10314000Y+8250000D03*
X-10568000Y+8250000D03*
X-10822000Y+8250000D03*
X-11076000Y+8250000D03*
X-11076000Y+6726000D03*
X-10822000Y+6726000D03*
X-10568000Y+6726000D03*
X-10314000Y+6726000D03*
X-10060000Y+6726000D03*
X-9806000Y+6726000D03*
X-9552000Y+6726000D03*
X-9298000Y+6726000D03*
X-9044000Y+6726000D03*
X-8790000Y+6726000D03*
X-8536000Y+6726000D03*
X-8282000Y+6726000D03*
X-8028000Y+6726000D03*
X-7774000Y+6726000D03*
X-7520000Y+6726000D03*
X-7266000Y+6726000D03*
X-7012000Y+6726000D03*
X-6758000Y+6726000D03*
X-6504000Y+6726000D03*
X-6250000Y+6726000D03*
D21*
X-11500000Y+8877000D03*
X-11373000Y+8750000D03*
X-11500000Y+8623000D03*
X-11000000Y+10000000D03*
X-11000000Y+9746000D03*
D27*
X-11750000Y+9500000D03*
D26*
X-6000000Y+5750000D03*
D23*
X-6254000Y+5750000D03*
X-6508000Y+5750000D03*
X-6762000Y+5750000D03*
X-7016000Y+5750000D03*
X-7270000Y+5750000D03*
X-7524000Y+5750000D03*
X-7778000Y+5750000D03*
X-8032000Y+5750000D03*
X-8286000Y+5750000D03*
X-8286000Y+4988000D03*
X-8032000Y+4988000D03*
X-7778000Y+4988000D03*
X-7524000Y+4988000D03*
X-7270000Y+4988000D03*
X-7016000Y+4988000D03*
X-6762000Y+4988000D03*
X-6508000Y+4988000D03*
X-6254000Y+4988000D03*
X-6000000Y+4988000D03*
D22*
X-4750000Y+6000000D03*
D23*
X-4750000Y+6254000D03*
X-4750000Y+6508000D03*
X-4750000Y+6762000D03*
X-4750000Y+7016000D03*
X-4750000Y+7270000D03*
X-4750000Y+7524000D03*
X-4750000Y+7778000D03*
X-5512000Y+7778000D03*
X-5512000Y+7524000D03*
X-5512000Y+7270000D03*
X-5512000Y+7016000D03*
X-5512000Y+6762000D03*
X-5512000Y+6508000D03*
X-5512000Y+6254000D03*
X-5512000Y+6000000D03*
D26*
X-6500000Y+9500000D03*
D23*
X-6754000Y+9500000D03*
X-7008000Y+9500000D03*
X-7262000Y+9500000D03*
X-7516000Y+9500000D03*
X-7770000Y+9500000D03*
X-8024000Y+9500000D03*
X-8278000Y+9500000D03*
X-8278000Y+8738000D03*
X-8024000Y+8738000D03*
X-7770000Y+8738000D03*
X-7516000Y+8738000D03*
X-7262000Y+8738000D03*
X-7008000Y+8738000D03*
X-6754000Y+8738000D03*
X-6500000Y+8738000D03*
D21*
X-6000000Y+10250000D03*
X-5746000Y+10250000D03*
X-7250000Y+10250000D03*
X-6996000Y+10250000D03*
X-8500000Y+10250000D03*
X-8246000Y+10250000D03*
X-9750000Y+10250000D03*
X-9496000Y+10250000D03*
D24*
X-8750000Y+4750000D03*
X-8750000Y+5766000D03*
X-10000000Y+5250000D03*
X-10000000Y+4996000D03*
D27*
X-12250000Y+6000000D03*
X-12000000Y+5500000D03*
X-11750000Y+6000000D03*
D24*
X-6000000Y+9500000D03*
X-6000000Y+8484000D03*
D27*
X-6246000Y+4500000D03*
X-6500000Y+4500000D03*
X-6754000Y+4500000D03*
D28*
X-10550000Y+6000000D03*
X-10350000Y+6000000D03*
X-10150000Y+6000000D03*
X-9950000Y+6000000D03*
X-9750000Y+6000000D03*
X-9550000Y+6000000D03*
X-9350000Y+6000000D03*
X-9150000Y+6000000D03*
X-9550000Y+8750000D03*
X-9750000Y+8750000D03*
X-9950000Y+8750000D03*
X-10150000Y+8750000D03*
D19*
X-14000000Y+3750000D02*
X-4250000Y+3750000D01*
X-4250000Y+10750000D01*
X-14000000Y+10750000D01*
X-14000000Y+3750000D01*
M02*
